<svg width="780" height="533" viewBox="0 0 780 533" fill="none" xmlns="http://www.w3.org/2000/svg">
<path d="M390.751 0.829291C387.811 -0.873824 384.047 0.130283 382.344 3.07203C380.642 6.01377 381.645 9.77917 384.586 11.4823L516.359 87.7999V133.134L483.716 151.753V111.183C483.716 111.032 483.711 110.881 483.702 110.732C483.712 109.668 483.447 108.589 482.877 107.601C482.294 106.59 481.467 105.807 480.514 105.284C480.418 105.222 480.32 105.161 480.221 105.104L345.815 26.8679C342.879 25.1584 339.112 26.1542 337.403 29.0922C335.695 32.0303 336.69 35.7978 339.627 37.5074L375.584 58.4375L362.419 66.355C359.507 68.1064 358.565 71.8878 360.316 74.8011C362.067 77.7143 365.847 78.6562 368.759 76.9048L387.72 65.5016L465.285 110.651L388.467 154.998L310.502 110.625L344.826 90.7458C349.486 88.0468 349.508 81.3237 344.866 78.5942L301.663 53.1935C299.463 51.9004 296.737 51.9004 294.537 53.1935L250.469 79.103C248.32 80.3665 247 82.6737 247 85.1673L247.001 240.442C247.001 243.842 249.756 246.597 253.154 246.597C256.552 246.597 259.306 243.841 259.306 240.442L259.305 88.1859L298.1 65.3769L330.837 84.6241L295.456 105.116C295.342 105.182 295.23 105.25 295.121 105.322C294.185 105.851 293.377 106.632 292.807 107.634C292.343 108.45 292.086 109.326 292.019 110.203C291.972 110.532 291.947 110.865 291.947 111.202L291.938 266.872C291.938 270.272 294.692 273.027 298.09 273.028C301.488 273.028 304.242 270.272 304.243 266.873L304.245 225.66L316.679 233.102C319.595 234.848 323.373 233.898 325.117 230.981C326.862 228.064 325.913 224.285 322.997 222.539L304.246 211.315L304.252 121.23L381.894 165.419L381.895 256.2L347.477 235.964C342.79 233.208 336.883 236.59 336.883 242.029V292.443C336.883 294.953 338.22 297.273 340.392 298.531L384.46 324.053C386.64 325.316 389.328 325.316 391.508 324.052L525.912 246.163C528.853 244.459 529.855 240.694 528.152 237.752C526.449 234.811 522.685 233.808 519.744 235.512L387.982 311.87L349.188 289.402L349.188 251.248L384.423 271.964C386.609 273.25 389.318 273.258 391.511 271.986L481.417 219.872L481.421 219.87L525.927 194.114C528.869 192.412 529.874 188.647 528.172 185.704C526.471 182.762 522.707 181.756 519.766 183.459L484.489 203.873L484.489 189.168C484.489 185.769 481.735 183.013 478.337 183.013C474.939 183.013 472.184 185.769 472.184 189.168V210.997L394.2 256.201L394.199 165.902L471.411 121.327V160.833C471.411 166.231 477.238 169.618 481.925 166.944L525.115 142.309C527.309 141.058 528.663 138.725 528.663 136.199V84.7583C528.663 82.2483 527.326 79.9285 525.155 78.6709L390.751 0.829291Z" fill="black"/>
<path d="M15.922 499.074V531.577H0V454.423H15.922V485.941H50.2573V454.423H66.1793V531.577H50.2573V499.074H15.922Z" fill="black"/>
<path d="M100.794 500.497L76.3151 455.189V454.423H92.7787L109.459 487.692L126.139 454.423H140.761V455.189L116.716 499.84V531.577H100.794V500.497Z" fill="black"/>
<path d="M166.751 531.577H151.046V454.423H176.5C185.67 454.423 192.819 456.502 197.946 460.661C203.145 464.819 205.744 470.984 205.744 479.156C205.744 487.109 203.217 493.164 198.162 497.323C193.18 501.409 186.392 503.451 177.799 503.451H166.751V531.577ZM166.751 491.851H176.716C181.554 491.851 185.056 490.793 187.223 488.677C189.461 486.488 190.58 483.205 190.58 478.828C190.58 474.669 189.389 471.605 187.006 469.635C184.695 467.665 181.085 466.68 176.175 466.68H166.751V491.851Z" fill="black"/>
<path d="M263.495 454.423V466.68H233.601V485.832H259.379V497.87H233.601V519.32H263.82V531.577H217.896V454.423H263.495Z" fill="black"/>
<path d="M294.104 502.576V531.577H278.399V454.423H304.935C314.178 454.423 321.291 456.466 326.273 460.551C331.328 464.637 333.855 470.51 333.855 478.171C333.855 483.424 332.591 487.838 330.064 491.413C327.537 494.988 323.962 497.542 319.341 499.074L338.946 530.592V531.577H322.265L304.719 502.576H294.104ZM294.104 490.866H304.069C313.673 490.866 318.474 486.671 318.474 478.28C318.474 474.195 317.283 471.203 314.9 469.306C312.517 467.409 308.726 466.461 303.527 466.461H294.104V490.866Z" fill="black"/>
<path d="M367.679 492.726C367.679 485.212 369.34 478.426 372.661 472.371C375.983 466.315 380.604 461.573 386.526 458.144C392.519 454.715 399.343 453 406.997 453C414.651 453 421.438 454.715 427.36 458.144C433.281 461.573 437.902 466.315 441.224 472.371C444.545 478.426 446.206 485.212 446.206 492.726C446.206 500.241 444.545 507.063 441.224 513.192C437.902 519.32 433.245 524.172 427.251 527.747C421.33 531.249 414.579 533 406.997 533C399.343 533 392.519 531.249 386.526 527.747C380.604 524.172 375.983 519.32 372.661 513.192C369.34 507.063 367.679 500.241 367.679 492.726ZM429.959 492.726C429.959 487.181 429.02 482.366 427.143 478.28C425.266 474.195 422.594 471.057 419.128 468.869C415.662 466.607 411.618 465.476 406.997 465.476C402.375 465.476 398.332 466.607 394.866 468.869C391.4 471.057 388.728 474.195 386.85 478.28C384.973 482.366 384.034 487.181 384.034 492.726C384.034 498.271 384.973 503.16 386.85 507.391C388.728 511.55 391.4 514.797 394.866 517.131C398.332 519.393 402.375 520.524 406.997 520.524C411.618 520.524 415.662 519.393 419.128 517.131C422.594 514.797 425.266 511.55 427.143 507.391C429.02 503.16 429.959 498.271 429.959 492.726Z" fill="black"/>
<path d="M474.661 502.576V531.577H458.956V454.423H485.492C494.735 454.423 501.848 456.466 506.83 460.551C511.885 464.637 514.412 470.51 514.412 478.171C514.412 483.424 513.148 487.838 510.621 491.413C508.094 494.988 504.519 497.542 499.898 499.074L519.503 530.592V531.577H502.823L485.276 502.576H474.661ZM474.661 490.866H484.626C494.23 490.866 499.032 486.671 499.032 478.28C499.032 474.195 497.84 471.203 495.457 469.306C493.074 467.409 489.283 466.461 484.084 466.461H474.661V490.866Z" fill="black"/>
<path d="M544.739 514.395L538.782 531.577H524.376V530.811L552.754 454.423H567.918L596.296 530.811V531.577H579.941L573.983 514.395H544.739ZM548.746 502.795H569.976L559.361 472.261L548.746 502.795Z" fill="black"/>
<path d="M598.902 492.726C598.902 484.993 600.635 478.135 604.101 472.152C607.567 466.096 612.405 461.39 618.615 458.034C624.825 454.678 631.865 453 639.736 453C644.502 453 648.51 453.365 651.759 454.094C655.081 454.824 658.222 455.955 661.182 457.487V471.276L660.641 471.605C657.825 469.635 654.864 468.176 651.759 467.227C648.726 466.206 645.188 465.695 641.144 465.695C635.945 465.695 631.396 466.789 627.497 468.978C623.598 471.167 620.565 474.304 618.399 478.39C616.304 482.476 615.257 487.254 615.257 492.726C615.257 498.198 616.341 503.014 618.507 507.172C620.673 511.331 623.778 514.541 627.822 516.803C631.865 519.065 636.559 520.196 641.903 520.196C646.235 520.196 649.99 519.612 653.167 518.445C656.344 517.204 659.485 515.307 662.59 512.754L663.24 513.082V526.762C660.424 528.732 657.247 530.264 653.709 531.358C650.243 532.453 645.838 533 640.494 533C632.335 533 625.078 531.285 618.724 527.856C612.441 524.427 607.567 519.648 604.101 513.52C600.635 507.391 598.902 500.46 598.902 492.726Z" fill="black"/>
<path d="M692.668 454.423V518.773H721.262V531.577H676.745V454.423H692.668Z" fill="black"/>
<path d="M779.675 454.423V466.68H749.781V485.832H775.559V497.87H749.781V519.32H780V531.577H734.075V454.423H779.675Z" fill="black"/>
</svg>
