<svg width="325" height="326" viewBox="0 0 325 326" fill="none" xmlns="http://www.w3.org/2000/svg">
<path fill-rule="evenodd" clip-rule="evenodd" d="M168.271 166.621C170.143 163.386 169.039 159.246 165.804 157.374L76.9272 105.942C73.6923 104.071 69.5524 105.175 67.6804 108.41C65.8085 111.645 66.9133 115.785 70.1482 117.657L159.025 169.088C162.26 170.96 166.4 169.856 168.271 166.621Z" fill="url(#paint0_linear_2085_6121)"/>
<path fill-rule="evenodd" clip-rule="evenodd" d="M162.414 271.958C166.151 271.958 169.181 268.929 169.181 265.191L169.181 163.231C169.181 159.494 166.151 156.464 162.414 156.464C158.676 156.464 155.647 159.494 155.647 163.231L155.646 265.191C155.646 268.929 158.676 271.958 162.414 271.958Z" fill="url(#paint1_linear_2085_6121)"/>
<path fill-rule="evenodd" clip-rule="evenodd" d="M156.585 166.669C158.484 169.888 162.633 170.959 165.852 169.06L254.611 116.71C257.83 114.812 258.901 110.663 257.002 107.443C255.103 104.224 250.954 103.154 247.735 105.052L158.976 157.402C155.757 159.301 154.687 163.45 156.585 166.669Z" fill="url(#paint2_linear_2085_6121)"/>
<path fill-rule="evenodd" clip-rule="evenodd" d="M301.992 236.685C303.865 239.919 302.762 244.06 299.528 245.933L168.344 321.928C164.568 324.115 159.911 324.116 156.135 321.93L116.918 299.225C113.156 297.047 110.84 293.03 110.84 288.683L110.84 249.196C110.84 239.777 121.072 233.922 129.193 238.694L162.263 258.13L245.19 210.079L245.19 188.79C245.19 185.053 248.22 182.023 251.957 182.023C255.695 182.023 258.724 185.053 258.724 188.79L258.724 202.246L292.765 182.553C296.001 180.682 300.14 181.787 302.012 185.023C303.883 188.258 302.778 192.397 299.543 194.269L168.365 270.237C164.564 272.439 159.873 272.424 156.086 270.199L124.374 251.561L124.374 287.903L162.238 309.824L292.744 234.222C295.978 232.349 300.118 233.451 301.992 236.685Z" fill="url(#paint3_linear_2085_6121)"/>
<path fill-rule="evenodd" clip-rule="evenodd" d="M28.3567 246.455C24.6193 246.455 21.5894 243.426 21.5894 239.688L21.5882 88.1599C21.5882 83.8417 23.8744 79.8461 27.5973 77.6581L66.815 54.6091C70.6251 52.3699 75.3491 52.3699 79.1591 54.6091L113.046 74.5252C121.089 79.2519 121.051 90.8947 112.977 95.5687L79.7541 114.803L79.7481 210.403L98.047 221.353C101.254 223.272 102.298 227.427 100.379 230.635C98.4602 233.842 94.3046 234.886 91.0975 232.967L79.7471 226.175L79.7447 265.923C79.7444 269.661 76.7144 272.691 72.977 272.69C69.2395 272.69 66.2099 269.66 66.2101 265.923L66.2196 114.022C66.2198 109.676 68.536 105.659 72.2975 103.481L104.188 85.0181L72.9871 66.6807L35.1228 88.9343L35.124 239.688C35.124 243.425 32.0942 246.455 28.3567 246.455Z" fill="url(#paint4_linear_2085_6121)"/>
<path fill-rule="evenodd" clip-rule="evenodd" d="M156.107 3.74111C157.98 0.506855 162.12 -0.59663 165.354 1.27641L296.646 77.3105C300.407 79.4886 302.722 83.5055 302.722 87.8516V133.71C302.722 138.085 300.376 142.124 296.576 144.291L262.74 163.59C254.619 168.221 244.524 162.357 244.524 153.009L244.524 114.88L162.019 66.8582L143.51 77.989C140.307 79.9151 136.149 78.8801 134.223 75.6772C132.297 72.4743 133.332 68.3164 136.535 66.3902L148.673 59.0904L113.894 38.8473C110.664 36.9672 109.57 32.8245 111.45 29.5944C113.33 26.3642 117.473 25.2698 120.703 27.1499L252.005 103.574C255.753 105.755 258.058 109.765 258.058 114.102V150.679L289.188 132.924V88.6318L158.571 12.9887C155.337 11.1156 154.234 6.97536 156.107 3.74111Z" fill="url(#paint5_linear_2085_6121)"/>
<defs>
<linearGradient id="paint0_linear_2085_6121" x1="162.414" y1="163.231" x2="148.469" y2="179.8" gradientUnits="userSpaceOnUse">
<stop stop-color="#BD3E7F"/>
<stop offset="1" stop-color="#B74296"/>
</linearGradient>
<linearGradient id="paint1_linear_2085_6121" x1="162.414" y1="163.231" x2="154.271" y2="259.995" gradientUnits="userSpaceOnUse">
<stop stop-color="#BD3E7F"/>
<stop offset="1" stop-color="#F26E40"/>
</linearGradient>
<linearGradient id="paint2_linear_2085_6121" x1="162.753" y1="162.976" x2="254.228" y2="113.147" gradientUnits="userSpaceOnUse">
<stop stop-color="#BD3E7F"/>
<stop offset="1" stop-color="#59987D"/>
</linearGradient>
<linearGradient id="paint3_linear_2085_6121" x1="300.895" y1="187.224" x2="111.407" y2="293.714" gradientUnits="userSpaceOnUse">
<stop stop-color="#FDD22F"/>
<stop offset="1" stop-color="#ED4946"/>
</linearGradient>
<linearGradient id="paint4_linear_2085_6121" x1="72.0334" y1="270.073" x2="72.0666" y2="55.5687" gradientUnits="userSpaceOnUse">
<stop stop-color="#ED4946"/>
<stop offset="1" stop-color="#A13EB4"/>
</linearGradient>
<linearGradient id="paint5_linear_2085_6121" x1="117.443" y1="32.4812" x2="296.451" y2="135.135" gradientUnits="userSpaceOnUse">
<stop stop-color="#734DBA"/>
<stop offset="0.291667" stop-color="#5260B8"/>
<stop offset="1" stop-color="#5BB35F"/>
</linearGradient>
</defs>
</svg>
