<svg width="1147" height="326" viewBox="0 0 1147 326" fill="none" xmlns="http://www.w3.org/2000/svg">
<path d="M383.902 169.134V201.231H368V125.041H383.902V156.165H418.193V125.041H434.094V201.231H418.193V169.134H383.902Z" fill="white"/>
<path d="M468.665 170.539L444.217 125.797V125.041H460.66L477.319 157.894L493.977 125.041H508.581V125.797L484.566 169.89V201.231H468.665V170.539Z" fill="white"/>
<path d="M534.538 201.231H518.852V125.041H544.273C553.432 125.041 560.572 127.094 565.692 131.201C570.884 135.307 573.48 141.395 573.48 149.465C573.48 157.318 570.956 163.298 565.908 167.405C560.932 171.439 554.153 173.457 545.571 173.457H534.538V201.231ZM534.538 162.001H544.49C549.321 162.001 552.819 160.956 554.983 158.867C557.218 156.706 558.336 153.463 558.336 149.141C558.336 145.034 557.146 142.008 554.766 140.063C552.459 138.117 548.853 137.145 543.949 137.145H534.538V162.001Z" fill="white"/>
<path d="M631.158 125.041V137.145H601.301V156.057H627.047V167.945H601.301V189.127H631.482V201.231H585.616V125.041H631.158Z" fill="white"/>
<path d="M661.727 172.592V201.231H646.042V125.041H672.544C681.775 125.041 688.879 127.058 693.855 131.093C698.903 135.127 701.427 140.927 701.427 148.492C701.427 153.68 700.165 158.038 697.641 161.569C695.117 165.099 691.547 167.621 686.932 169.134L706.511 200.258V201.231H689.852L672.328 172.592H661.727ZM661.727 161.028H671.679C681.27 161.028 686.066 156.886 686.066 148.6C686.066 144.566 684.876 141.612 682.496 139.738C680.117 137.865 676.33 136.928 671.138 136.928H661.727V161.028Z" fill="white"/>
<path d="M735.208 162.866C735.208 155.445 736.866 148.744 740.184 142.764C743.501 136.784 748.116 132.101 754.03 128.715C760.016 125.329 766.831 123.636 774.475 123.636C782.119 123.636 788.898 125.329 794.812 128.715C800.725 132.101 805.341 136.784 808.658 142.764C811.975 148.744 813.634 155.445 813.634 162.866C813.634 170.286 811.975 177.023 808.658 183.075C805.341 189.127 800.689 193.918 794.704 197.448C788.79 200.907 782.047 202.636 774.475 202.636C766.831 202.636 760.016 200.907 754.03 197.448C748.116 193.918 743.501 189.127 740.184 183.075C736.866 177.023 735.208 170.286 735.208 162.866ZM797.408 162.866C797.408 157.39 796.47 152.635 794.595 148.6C792.72 144.566 790.052 141.467 786.59 139.306C783.129 137.073 779.09 135.956 774.475 135.956C769.859 135.956 765.821 137.073 762.359 139.306C758.898 141.467 756.23 144.566 754.355 148.6C752.479 152.635 751.542 157.39 751.542 162.866C751.542 168.341 752.479 173.168 754.355 177.347C756.23 181.454 758.898 184.66 762.359 186.965C765.821 189.199 769.859 190.316 774.475 190.316C779.09 190.316 783.129 189.199 786.59 186.965C790.052 184.66 792.72 181.454 794.595 177.347C796.47 173.168 797.408 168.341 797.408 162.866Z" fill="white"/>
<path d="M842.053 172.592V201.231H826.367V125.041H852.87C862.101 125.041 869.204 127.058 874.18 131.093C879.228 135.127 881.753 140.927 881.753 148.492C881.753 153.68 880.49 158.038 877.966 161.569C875.442 165.099 871.873 167.621 867.257 169.134L886.837 200.258V201.231H870.178L852.654 172.592H842.053ZM842.053 161.028H852.005C861.596 161.028 866.392 156.886 866.392 148.6C866.392 144.566 865.202 141.612 862.822 139.738C860.442 137.865 856.656 136.928 851.464 136.928H842.053V161.028Z" fill="white"/>
<path d="M912.04 184.264L906.091 201.231H891.704V200.474L920.045 125.041H935.19L963.531 200.474V201.231H947.197L941.248 184.264H912.04ZM916.043 172.808H937.245L926.644 142.656L916.043 172.808Z" fill="white"/>
<path d="M966.134 162.866C966.134 155.229 967.865 148.456 971.327 142.548C974.788 136.568 979.62 131.921 985.822 128.607C992.024 125.293 999.055 123.636 1006.92 123.636C1011.68 123.636 1015.68 123.996 1018.92 124.716C1022.24 125.437 1025.38 126.554 1028.33 128.067V141.684L1027.79 142.008C1024.98 140.063 1022.02 138.622 1018.92 137.685C1015.89 136.676 1012.36 136.172 1008.32 136.172C1003.13 136.172 998.587 137.253 994.692 139.414C990.798 141.576 987.769 144.674 985.606 148.708C983.514 152.743 982.469 157.462 982.469 162.866C982.469 168.269 983.55 173.024 985.714 177.131C987.877 181.238 990.978 184.408 995.017 186.641C999.055 188.875 1003.74 189.991 1009.08 189.991C1013.41 189.991 1017.16 189.415 1020.33 188.262C1023.5 187.037 1026.64 185.164 1029.74 182.643L1030.39 182.967V196.476C1027.58 198.421 1024.4 199.934 1020.87 201.015C1017.41 202.095 1013.01 202.636 1007.67 202.636C999.524 202.636 992.276 200.943 985.93 197.556C979.656 194.17 974.788 189.451 971.327 183.399C967.865 177.347 966.134 170.503 966.134 162.866Z" fill="white"/>
<path d="M1059.78 125.041V188.586H1088.34V201.231H1043.88V125.041H1059.78Z" fill="white"/>
<path d="M1146.68 125.041V137.145H1116.82V156.057H1142.56V167.945H1116.82V189.127H1147V201.231H1101.13V125.041H1146.68Z" fill="white"/>
<path fill-rule="evenodd" clip-rule="evenodd" d="M168.272 166.804C170.144 163.569 169.04 159.43 165.805 157.558L76.9281 106.126C73.6933 104.254 69.5534 105.359 67.6814 108.594C65.8094 111.829 66.9143 115.969 70.1492 117.841L159.026 169.272C162.261 171.144 166.4 170.039 168.272 166.804Z" fill="url(#paint0_linear_2085_6136)"/>
<path fill-rule="evenodd" clip-rule="evenodd" d="M162.414 272.142C166.152 272.142 169.181 269.112 169.181 265.375L169.182 163.415C169.182 159.677 166.152 156.648 162.414 156.648C158.677 156.647 155.647 159.677 155.647 163.415L155.647 265.375C155.647 269.112 158.677 272.142 162.414 272.142Z" fill="url(#paint1_linear_2085_6136)"/>
<path fill-rule="evenodd" clip-rule="evenodd" d="M156.586 166.853C158.484 170.072 162.633 171.142 165.853 169.244L254.611 116.894C257.831 114.995 258.901 110.846 257.002 107.627C255.104 104.408 250.955 103.337 247.736 105.236L158.977 157.586C155.758 159.485 154.687 163.633 156.586 166.853Z" fill="url(#paint2_linear_2085_6136)"/>
<path fill-rule="evenodd" clip-rule="evenodd" d="M301.992 236.869C303.866 240.103 302.763 244.244 299.529 246.117L168.344 322.112C164.569 324.299 159.911 324.3 156.135 322.113L116.918 299.409C113.156 297.231 110.84 293.214 110.84 288.867L110.84 249.38C110.84 239.961 121.073 234.105 129.193 238.878L162.263 258.314L245.19 210.262L245.19 188.974C245.19 185.237 248.22 182.207 251.958 182.207C255.695 182.207 258.725 185.236 258.725 188.974L258.725 202.43L292.766 182.737C296.001 180.866 300.141 181.971 302.012 185.206C303.884 188.441 302.778 192.581 299.543 194.453L168.365 270.42C164.565 272.623 159.873 272.608 156.086 270.382L124.375 251.745L124.375 288.087L162.238 310.008L292.745 234.406C295.979 232.532 300.119 233.635 301.992 236.869Z" fill="url(#paint3_linear_2085_6136)"/>
<path fill-rule="evenodd" clip-rule="evenodd" d="M28.3572 246.639C24.6198 246.639 21.5899 243.609 21.5899 239.872L21.5887 88.3434C21.5887 84.0252 23.8749 80.0297 27.5978 77.8417L66.8155 54.7926C70.6255 52.5534 75.3495 52.5534 79.1596 54.7926L113.047 74.7087C121.089 79.4355 121.051 91.0782 112.978 95.7522L79.7546 114.987L79.7486 210.587L98.0474 221.536C101.255 223.455 102.299 227.611 100.38 230.818C98.4607 234.025 94.3051 235.07 91.0979 233.15L79.7476 226.359L79.7452 266.107C79.7449 269.844 76.7149 272.874 72.9775 272.874C69.24 272.874 66.2104 269.844 66.2106 266.106L66.2201 114.206C66.2203 109.859 68.5365 105.842 72.298 103.665L104.188 85.2016L72.9875 66.8642L35.1233 89.1178L35.1244 239.872C35.1245 243.609 32.0947 246.639 28.3572 246.639Z" fill="url(#paint4_linear_2085_6136)"/>
<path fill-rule="evenodd" clip-rule="evenodd" d="M156.108 3.9247C157.981 0.690449 162.121 -0.413036 165.355 1.46L296.647 77.4941C300.408 79.6722 302.723 83.6891 302.723 88.0352V133.894C302.723 138.268 300.377 142.307 296.577 144.475L262.741 163.773C254.62 168.405 244.525 162.541 244.525 153.192L244.525 115.064L162.02 67.0418L143.511 78.1726C140.308 80.0987 136.15 79.0637 134.224 75.8608C132.298 72.6579 133.333 68.5 136.536 66.5738L148.674 59.274L113.895 39.0309C110.665 37.1508 109.571 33.0081 111.451 29.778C113.331 26.5478 117.474 25.4534 120.704 27.3335L252.006 103.758C255.754 105.939 258.059 109.949 258.059 114.285V150.862L289.189 133.107V88.8154L158.572 13.1723C155.338 11.2992 154.235 7.15896 156.108 3.9247Z" fill="url(#paint5_linear_2085_6136)"/>
<defs>
<linearGradient id="paint0_linear_2085_6136" x1="162.415" y1="163.415" x2="148.47" y2="179.984" gradientUnits="userSpaceOnUse">
<stop stop-color="#BD3E7F"/>
<stop offset="1" stop-color="#B74296"/>
</linearGradient>
<linearGradient id="paint1_linear_2085_6136" x1="162.415" y1="163.415" x2="154.272" y2="260.178" gradientUnits="userSpaceOnUse">
<stop stop-color="#BD3E7F"/>
<stop offset="1" stop-color="#F26E40"/>
</linearGradient>
<linearGradient id="paint2_linear_2085_6136" x1="162.754" y1="163.16" x2="254.228" y2="113.331" gradientUnits="userSpaceOnUse">
<stop stop-color="#BD3E7F"/>
<stop offset="1" stop-color="#59987D"/>
</linearGradient>
<linearGradient id="paint3_linear_2085_6136" x1="300.896" y1="187.408" x2="111.407" y2="293.897" gradientUnits="userSpaceOnUse">
<stop stop-color="#FDD22F"/>
<stop offset="1" stop-color="#ED4946"/>
</linearGradient>
<linearGradient id="paint4_linear_2085_6136" x1="72.0339" y1="270.256" x2="72.0671" y2="55.7522" gradientUnits="userSpaceOnUse">
<stop stop-color="#ED4946"/>
<stop offset="1" stop-color="#A13EB4"/>
</linearGradient>
<linearGradient id="paint5_linear_2085_6136" x1="117.444" y1="32.6648" x2="296.452" y2="135.318" gradientUnits="userSpaceOnUse">
<stop stop-color="#734DBA"/>
<stop offset="0.291667" stop-color="#5260B8"/>
<stop offset="1" stop-color="#5BB35F"/>
</linearGradient>
</defs>
</svg>
