<svg width="780" height="527" viewBox="0 0 780 527" fill="none" xmlns="http://www.w3.org/2000/svg">
<path d="M15.922 493.498V525.595H0V449.405H15.922V480.529H50.2573V449.405H66.1793V525.595H50.2573V493.498H15.922Z" fill="black"/>
<path d="M100.794 494.903L76.3151 450.161V449.405H92.7787L109.459 482.259L126.139 449.405H140.761V450.161L116.716 494.254V525.595H100.794V494.903Z" fill="black"/>
<path d="M166.751 525.595H151.046V449.405H176.5C185.67 449.405 192.819 451.458 197.946 455.565C203.145 459.672 205.744 465.76 205.744 473.829C205.744 481.682 203.217 487.662 198.162 491.769C193.18 495.803 186.392 497.821 177.799 497.821H166.751V525.595ZM166.751 486.365H176.716C181.554 486.365 185.056 485.321 187.223 483.231C189.461 481.07 190.58 477.828 190.58 473.505C190.58 469.398 189.389 466.372 187.006 464.427C184.695 462.482 181.085 461.509 176.175 461.509H166.751V486.365Z" fill="black"/>
<path d="M263.495 449.405V461.509H233.601V480.421H259.379V492.309H233.601V513.491H263.82V525.595H217.896V449.405H263.495Z" fill="black"/>
<path d="M294.104 496.956V525.595H278.399V449.405H304.935C314.178 449.405 321.291 451.422 326.273 455.457C331.328 459.492 333.855 465.291 333.855 472.856C333.855 478.044 332.591 482.403 330.064 485.933C327.537 489.463 323.962 491.985 319.341 493.498L338.946 524.622V525.595H322.265L304.719 496.956H294.104ZM294.104 485.393H304.069C313.673 485.393 318.474 481.25 318.474 472.964C318.474 468.93 317.283 465.976 314.9 464.103C312.517 462.229 308.726 461.293 303.527 461.293H294.104V485.393Z" fill="black"/>
<path d="M367.679 487.23C367.679 479.809 369.34 473.109 372.661 467.129C375.983 461.149 380.604 456.466 386.526 453.079C392.519 449.693 399.343 448 406.997 448C414.651 448 421.438 449.693 427.36 453.079C433.281 456.466 437.902 461.149 441.224 467.129C444.545 473.109 446.206 479.809 446.206 487.23C446.206 494.651 444.545 501.387 441.224 507.439C437.902 513.491 433.245 518.282 427.251 521.813C421.33 525.271 414.579 527 406.997 527C399.343 527 392.519 525.271 386.526 521.813C380.604 518.282 375.983 513.491 372.661 507.439C369.34 501.387 367.679 494.651 367.679 487.23ZM429.959 487.23C429.959 481.754 429.02 476.999 427.143 472.964C425.266 468.93 422.594 465.832 419.128 463.67C415.662 461.437 411.618 460.32 406.997 460.32C402.375 460.32 398.332 461.437 394.866 463.67C391.4 465.832 388.728 468.93 386.85 472.964C384.973 476.999 384.034 481.754 384.034 487.23C384.034 492.705 384.973 497.533 386.85 501.711C388.728 505.818 391.4 509.024 394.866 511.33C398.332 513.563 402.375 514.68 406.997 514.68C411.618 514.68 415.662 513.563 419.128 511.33C422.594 509.024 425.266 505.818 427.143 501.711C429.02 497.533 429.959 492.705 429.959 487.23Z" fill="black"/>
<path d="M474.661 496.956V525.595H458.956V449.405H485.492C494.735 449.405 501.848 451.422 506.83 455.457C511.885 459.492 514.412 465.291 514.412 472.856C514.412 478.044 513.148 482.403 510.621 485.933C508.094 489.463 504.519 491.985 499.898 493.498L519.503 524.622V525.595H502.823L485.276 496.956H474.661ZM474.661 485.393H484.626C494.23 485.393 499.032 481.25 499.032 472.964C499.032 468.93 497.84 465.976 495.457 464.103C493.074 462.229 489.283 461.293 484.084 461.293H474.661V485.393Z" fill="black"/>
<path d="M544.739 508.628L538.782 525.595H524.376V524.839L552.754 449.405H567.918L596.296 524.839V525.595H579.941L573.983 508.628H544.739ZM548.746 497.172H569.976L559.361 467.021L548.746 497.172Z" fill="black"/>
<path d="M598.902 487.23C598.902 479.593 600.635 472.82 604.101 466.912C607.567 460.933 612.405 456.285 618.615 452.971C624.825 449.657 631.865 448 639.736 448C644.502 448 648.51 448.36 651.759 449.081C655.081 449.801 658.222 450.918 661.182 452.431V466.048L660.641 466.372C657.825 464.427 654.864 462.986 651.759 462.049C648.726 461.041 645.188 460.536 641.144 460.536C635.945 460.536 631.396 461.617 627.497 463.778C623.598 465.94 620.565 469.038 618.399 473.073C616.304 477.107 615.257 481.826 615.257 487.23C615.257 492.633 616.341 497.389 618.507 501.495C620.673 505.602 623.778 508.772 627.822 511.005C631.865 513.239 636.559 514.356 641.903 514.356C646.235 514.356 649.99 513.779 653.167 512.627C656.344 511.402 659.485 509.528 662.59 507.007L663.24 507.331V520.84C660.424 522.785 657.247 524.298 653.709 525.379C650.243 526.46 645.838 527 640.494 527C632.335 527 625.078 525.307 618.724 521.921C612.441 518.534 607.567 513.815 604.101 507.763C600.635 501.711 598.902 494.867 598.902 487.23Z" fill="black"/>
<path d="M692.668 449.405V512.951H721.262V525.595H676.745V449.405H692.668Z" fill="black"/>
<path d="M779.675 449.405V461.509H749.781V480.421H775.559V492.309H749.781V513.491H780V525.595H734.075V449.405H779.675Z" fill="black"/>
<path fill-rule="evenodd" clip-rule="evenodd" d="M396.272 166.804C398.144 163.569 397.04 159.43 393.805 157.558L304.928 106.126C301.693 104.254 297.553 105.359 295.681 108.594C293.809 111.829 294.914 115.969 298.149 117.841L387.026 169.272C390.261 171.144 394.4 170.039 396.272 166.804Z" fill="url(#paint0_linear_2085_6138)"/>
<path fill-rule="evenodd" clip-rule="evenodd" d="M390.414 272.142C394.152 272.142 397.181 269.112 397.181 265.375L397.182 163.415C397.182 159.677 394.152 156.647 390.414 156.647C386.677 156.647 383.647 159.677 383.647 163.415L383.647 265.375C383.647 269.112 386.677 272.142 390.414 272.142Z" fill="url(#paint1_linear_2085_6138)"/>
<path fill-rule="evenodd" clip-rule="evenodd" d="M384.586 166.853C386.484 170.072 390.633 171.142 393.853 169.244L482.611 116.894C485.831 114.995 486.901 110.846 485.002 107.627C483.104 104.408 478.955 103.337 475.736 105.236L386.977 157.586C383.758 159.485 382.687 163.633 384.586 166.853Z" fill="url(#paint2_linear_2085_6138)"/>
<path fill-rule="evenodd" clip-rule="evenodd" d="M529.992 236.869C531.866 240.103 530.763 244.243 527.529 246.117L396.344 322.112C392.569 324.299 387.911 324.3 384.135 322.113L344.918 299.409C341.156 297.231 338.84 293.214 338.84 288.867L338.84 249.38C338.84 239.961 349.073 234.105 357.193 238.878L390.263 258.314L473.19 210.262L473.19 188.974C473.19 185.236 476.22 182.207 479.958 182.207C483.695 182.207 486.725 185.236 486.725 188.974L486.725 202.43L520.766 182.737C524.001 180.866 528.141 181.971 530.012 185.206C531.884 188.441 530.778 192.581 527.543 194.453L396.365 270.42C392.565 272.623 387.873 272.608 384.086 270.382L352.375 251.745L352.375 288.087L390.238 310.008L520.745 234.406C523.979 232.532 528.119 233.635 529.992 236.869Z" fill="url(#paint3_linear_2085_6138)"/>
<path fill-rule="evenodd" clip-rule="evenodd" d="M256.357 246.639C252.62 246.639 249.59 243.609 249.59 239.872L249.589 88.3435C249.589 84.0253 251.875 80.0297 255.598 77.8417L294.815 54.7927C298.626 52.5535 303.35 52.5535 307.16 54.7927L341.047 74.7088C349.089 79.4355 349.051 91.0783 340.978 95.7523L307.755 114.987L307.749 210.587L326.047 221.536C329.255 223.455 330.299 227.611 328.38 230.818C326.461 234.025 322.305 235.07 319.098 233.151L307.748 226.359L307.745 266.107C307.745 269.845 304.715 272.874 300.977 272.874C297.24 272.874 294.21 269.844 294.211 266.106L294.22 114.206C294.22 109.859 296.536 105.842 300.298 103.665L332.188 85.2017L300.988 66.8643L263.123 89.1179L263.124 239.872C263.124 243.609 260.095 246.639 256.357 246.639Z" fill="url(#paint4_linear_2085_6138)"/>
<path fill-rule="evenodd" clip-rule="evenodd" d="M384.108 3.9247C385.981 0.690445 390.121 -0.41304 393.355 1.46L524.647 77.4941C528.408 79.6722 530.723 83.6891 530.723 88.0352V133.894C530.723 138.268 528.377 142.307 524.577 144.475L490.741 163.773C482.62 168.405 472.525 162.541 472.525 153.192V115.064L390.02 67.0418L371.511 78.1726C368.308 80.0987 364.15 79.0637 362.224 75.8608C360.298 72.6579 361.333 68.5 364.536 66.5738L376.674 59.274L341.895 39.0309C338.665 37.1508 337.571 33.0081 339.451 29.778C341.331 26.5478 345.474 25.4534 348.704 27.3335L480.006 103.758C483.754 105.939 486.059 109.949 486.059 114.285V150.862L517.189 133.107V88.8154L386.572 13.1723C383.338 11.2992 382.235 7.15895 384.108 3.9247Z" fill="url(#paint5_linear_2085_6138)"/>
<defs>
<linearGradient id="paint0_linear_2085_6138" x1="390.415" y1="163.415" x2="376.47" y2="179.984" gradientUnits="userSpaceOnUse">
<stop stop-color="#BD3E7F"/>
<stop offset="1" stop-color="#B74296"/>
</linearGradient>
<linearGradient id="paint1_linear_2085_6138" x1="390.415" y1="163.415" x2="382.272" y2="260.178" gradientUnits="userSpaceOnUse">
<stop stop-color="#BD3E7F"/>
<stop offset="1" stop-color="#F26E40"/>
</linearGradient>
<linearGradient id="paint2_linear_2085_6138" x1="390.754" y1="163.16" x2="482.228" y2="113.331" gradientUnits="userSpaceOnUse">
<stop stop-color="#BD3E7F"/>
<stop offset="1" stop-color="#59987D"/>
</linearGradient>
<linearGradient id="paint3_linear_2085_6138" x1="528.896" y1="187.408" x2="339.407" y2="293.897" gradientUnits="userSpaceOnUse">
<stop stop-color="#FDD22F"/>
<stop offset="1" stop-color="#ED4946"/>
</linearGradient>
<linearGradient id="paint4_linear_2085_6138" x1="300.034" y1="270.256" x2="300.067" y2="55.7523" gradientUnits="userSpaceOnUse">
<stop stop-color="#ED4946"/>
<stop offset="1" stop-color="#A13EB4"/>
</linearGradient>
<linearGradient id="paint5_linear_2085_6138" x1="345.444" y1="32.6648" x2="524.452" y2="135.318" gradientUnits="userSpaceOnUse">
<stop stop-color="#734DBA"/>
<stop offset="0.291667" stop-color="#5260B8"/>
<stop offset="1" stop-color="#5BB35F"/>
</linearGradient>
</defs>
</svg>
