<svg width="769" height="325" viewBox="0 0 769 325" fill="none" xmlns="http://www.w3.org/2000/svg">
<path d="M143.751 0.829291C140.811 -0.873824 137.047 0.130283 135.344 3.07203C133.642 6.01377 134.645 9.77917 137.586 11.4823L269.359 87.7999V133.134L236.716 151.753V111.183C236.716 111.032 236.711 110.881 236.702 110.732C236.712 109.668 236.447 108.589 235.877 107.601C235.294 106.59 234.467 105.807 233.514 105.284C233.418 105.222 233.32 105.161 233.221 105.104L98.8155 26.8679C95.8785 25.1584 92.1123 26.1542 90.4034 29.0922C88.6945 32.0303 89.69 35.7978 92.6269 37.5074L128.584 58.4375L115.419 66.355C112.507 68.1064 111.565 71.8878 113.316 74.8011C115.067 77.7143 118.847 78.6562 121.759 76.9048L140.72 65.5016L218.285 110.651L141.467 154.998L63.5025 110.625L97.826 90.7458C102.486 88.0468 102.508 81.3237 97.8658 78.5942L54.6627 53.1935C52.4634 51.9004 49.7365 51.9004 47.5372 53.1935L3.46865 79.103C1.31967 80.3665 -3.51303e-05 82.6737 -8.30759e-06 85.1673L0.0011897 240.442C0.00121652 243.842 2.75581 246.597 6.15374 246.597C9.55166 246.597 12.3062 243.841 12.3062 240.442L12.305 88.1859L51.1 65.3769L83.8369 84.6241L48.4558 105.116C48.3418 105.182 48.2301 105.25 48.1208 105.322C47.1854 105.851 46.3767 106.632 45.8067 107.634C45.343 108.45 45.0858 109.326 45.0186 110.203C44.9716 110.532 44.9474 110.865 44.9474 111.202L44.9377 266.872C44.9375 270.272 47.6919 273.027 51.0898 273.028C54.4877 273.028 57.2425 270.272 57.2427 266.873L57.2452 225.66L69.6788 233.102C72.5946 234.848 76.3727 233.898 78.1174 230.981C79.8621 228.064 78.9127 224.285 75.9969 222.539L57.2461 211.315L57.2518 121.23L134.894 165.419L134.895 256.2L100.477 235.964C95.7899 233.208 89.8831 236.59 89.8831 242.029L89.8831 292.443C89.8831 294.953 91.2201 297.273 93.3915 298.531L137.46 324.053C139.64 325.316 142.328 325.316 144.508 324.052L278.912 246.163C281.853 244.459 282.855 240.694 281.152 237.752C279.449 234.811 275.685 233.808 272.744 235.512L140.982 311.87L102.188 289.402L102.188 251.248L137.423 271.964C139.609 273.25 142.318 273.258 144.511 271.986L234.417 219.872L278.927 194.114C281.869 192.412 282.874 188.647 281.172 185.704C279.471 182.762 275.707 181.756 272.766 183.459L237.489 203.873L237.489 189.168C237.489 185.769 234.735 183.013 231.337 183.013C227.939 183.013 225.184 185.769 225.184 189.168L225.184 210.997L147.2 256.201L147.199 165.902L224.411 121.327L224.411 160.833C224.411 166.231 230.238 169.618 234.925 166.944L278.115 142.309C280.309 141.058 281.663 138.725 281.663 136.199L281.663 84.7583C281.663 82.2483 280.326 79.9285 278.155 78.6709L143.751 0.829291Z" fill="white"/>
<path d="M377.131 97.2775V129.509H361.221V53H377.131V84.2547H411.439V53H427.349V129.509H411.439V97.2775H377.131Z" fill="white"/>
<path d="M461.936 98.6883L437.477 53.7597V53H453.927L470.595 85.9911L487.262 53H501.873V53.7597L477.846 98.0372V129.509H461.936V98.6883Z" fill="white"/>
<path d="M527.843 129.509H512.149V53H537.583C546.747 53 553.89 55.0619 559.012 59.1858C564.207 63.3097 566.805 69.4232 566.805 77.5263C566.805 85.4123 564.28 91.4173 559.229 95.5411C554.25 99.5927 547.468 101.618 538.882 101.618H527.843V129.509ZM527.843 90.115H537.8C542.634 90.115 546.133 89.0659 548.298 86.9678C550.535 84.7973 551.653 81.5416 551.653 77.2007C551.653 73.0768 550.462 70.0382 548.081 68.0847C545.772 66.1313 542.165 65.1546 537.258 65.1546H527.843V90.115Z" fill="white"/>
<path d="M624.511 53V65.1546H594.64V84.1462H620.398V96.0837H594.64V117.354H624.836V129.509H578.947V53H624.511Z" fill="white"/>
<path d="M655.096 100.75V129.509H639.403V53H665.919C675.154 53 682.261 55.0258 687.24 59.0773C692.291 63.1288 694.816 68.9529 694.816 76.5496C694.816 81.7587 693.553 86.1358 691.028 89.6809C688.503 93.226 684.931 95.7582 680.313 97.2775L699.903 128.532V129.509H683.235L665.702 100.75H655.096ZM655.096 89.1383H665.053C674.649 89.1383 679.447 84.9782 679.447 76.6581C679.447 72.6065 678.257 69.6402 675.876 67.7592C673.495 65.8781 669.707 64.9376 664.512 64.9376H655.096V89.1383Z" fill="white"/>
<path d="M357 232.063C357 224.612 358.66 217.883 361.979 211.878C365.298 205.873 369.915 201.17 375.832 197.77C381.82 194.37 388.639 192.669 396.287 192.669C403.935 192.669 410.718 194.37 416.634 197.77C422.551 201.17 427.168 205.873 430.487 211.878C433.806 217.883 435.466 224.612 435.466 232.063C435.466 239.515 433.806 246.28 430.487 252.357C427.168 258.435 422.515 263.246 416.526 266.791C410.609 270.264 403.863 272 396.287 272C388.639 272 381.82 270.264 375.832 266.791C369.915 263.246 365.298 258.435 361.979 252.357C358.66 246.28 357 239.515 357 232.063ZM419.232 232.063C419.232 226.565 418.294 221.79 416.418 217.738C414.542 213.687 411.872 210.576 408.409 208.405C404.945 206.163 400.905 205.041 396.287 205.041C391.669 205.041 387.629 206.163 384.165 208.405C380.702 210.576 378.032 213.687 376.156 217.738C374.281 221.79 373.343 226.565 373.343 232.063C373.343 237.562 374.281 242.409 376.156 246.606C378.032 250.729 380.702 253.949 384.165 256.264C387.629 258.507 391.669 259.628 396.287 259.628C400.905 259.628 404.945 258.507 408.409 256.264C411.872 253.949 414.542 250.729 416.418 246.606C418.294 242.409 419.232 237.562 419.232 232.063Z" fill="white"/>
<path d="M463.899 241.831V270.589H448.206V194.08H474.722C483.957 194.08 491.064 196.106 496.043 200.158C501.093 204.209 503.619 210.033 503.619 217.63C503.619 222.839 502.356 227.216 499.831 230.761C497.305 234.306 493.734 236.838 489.116 238.358L508.705 269.613V270.589H492.038L474.505 241.831H463.899ZM463.899 230.219H473.856C483.452 230.219 488.25 226.058 488.25 217.738C488.25 213.687 487.06 210.721 484.679 208.839C482.298 206.958 478.51 206.018 473.315 206.018H463.899V230.219Z" fill="white"/>
<path d="M533.922 253.551L527.969 270.589H513.575V269.83L541.931 194.08H557.083L585.439 269.83V270.589H569.096L563.144 253.551H533.922ZM537.926 242.048H559.139L548.533 211.77L537.926 242.048Z" fill="white"/>
<path d="M588.043 232.063C588.043 224.394 589.775 217.594 593.238 211.661C596.701 205.656 601.536 200.99 607.741 197.662C613.946 194.333 620.981 192.669 628.845 192.669C633.607 192.669 637.612 193.031 640.859 193.755C644.178 194.478 647.316 195.6 650.275 197.119V210.793L649.734 211.118C646.92 209.165 643.961 207.718 640.859 206.778C637.828 205.765 634.293 205.258 630.252 205.258C625.057 205.258 620.512 206.343 616.616 208.514C612.719 210.684 609.689 213.795 607.524 217.847C605.432 221.898 604.386 226.637 604.386 232.063C604.386 237.49 605.468 242.265 607.633 246.389C609.797 250.512 612.9 253.696 616.94 255.939C620.981 258.181 625.671 259.303 631.01 259.303C635.339 259.303 639.091 258.724 642.266 257.566C645.44 256.336 648.579 254.455 651.682 251.923L652.331 252.249V265.814C649.517 267.768 646.342 269.287 642.807 270.372C639.344 271.457 634.942 272 629.603 272C621.45 272 614.198 270.3 607.849 266.899C601.572 263.499 596.701 258.76 593.238 252.683C589.775 246.606 588.043 239.732 588.043 232.063Z" fill="white"/>
<path d="M681.735 194.08V257.892H710.308V270.589H665.826V194.08H681.735Z" fill="white"/>
<path d="M768.675 194.08V206.235H738.804V225.226H764.563V237.164H738.804V258.435H769V270.589H723.111V194.08H768.675Z" fill="white"/>
</svg>
