<svg width="282" height="325" viewBox="0 0 282 325" fill="none" xmlns="http://www.w3.org/2000/svg">
<path d="M143.751 0.829291C140.811 -0.873824 137.047 0.130283 135.344 3.07203C133.642 6.01377 134.645 9.77917 137.586 11.4823L269.359 87.7999V133.134L236.716 151.753V111.183C236.716 111.032 236.711 110.881 236.702 110.732C236.712 109.668 236.447 108.589 235.877 107.601C235.294 106.59 234.467 105.807 233.514 105.284C233.418 105.222 233.32 105.161 233.221 105.104L98.8155 26.8679C95.8785 25.1584 92.1123 26.1542 90.4034 29.0922C88.6945 32.0303 89.69 35.7978 92.6269 37.5074L128.584 58.4375L115.419 66.355C112.507 68.1064 111.565 71.8878 113.316 74.8011C115.067 77.7143 118.847 78.6562 121.759 76.9048L140.72 65.5016L218.285 110.651L141.467 154.998L63.5025 110.625L97.826 90.7458C102.486 88.0468 102.508 81.3237 97.8658 78.5942L54.6627 53.1935C52.4634 51.9004 49.7365 51.9004 47.5372 53.1935L3.46865 79.103C1.31967 80.3665 -3.51303e-05 82.6737 -8.30759e-06 85.1673L0.0011897 240.442C0.00121652 243.842 2.75581 246.597 6.15374 246.597C9.55166 246.597 12.3062 243.841 12.3062 240.442L12.305 88.1859L51.1 65.3769L83.8369 84.6241L48.4558 105.116C48.3418 105.182 48.2301 105.25 48.1208 105.322C47.1854 105.851 46.3767 106.632 45.8067 107.634C45.343 108.45 45.0858 109.326 45.0186 110.203C44.9716 110.532 44.9474 110.865 44.9474 111.202L44.9377 266.872C44.9375 270.272 47.6919 273.027 51.0898 273.028C54.4877 273.028 57.2425 270.272 57.2427 266.873L57.2452 225.66L69.6788 233.102C72.5946 234.848 76.3727 233.898 78.1174 230.981C79.8621 228.064 78.9127 224.285 75.9969 222.539L57.2461 211.315L57.2518 121.23L134.894 165.419L134.895 256.2L100.477 235.964C95.7899 233.208 89.8831 236.59 89.8831 242.029V292.443C89.8831 294.953 91.2201 297.273 93.3915 298.531L137.46 324.053C139.64 325.316 142.328 325.316 144.508 324.052L278.912 246.163C281.853 244.459 282.855 240.694 281.152 237.752C279.449 234.811 275.685 233.808 272.744 235.512L140.982 311.87L102.188 289.402L102.188 251.248L137.423 271.964C139.609 273.25 142.318 273.258 144.511 271.986L234.417 219.872L278.927 194.114C281.869 192.412 282.874 188.647 281.172 185.704C279.471 182.762 275.707 181.756 272.766 183.459L237.489 203.873L237.489 189.168C237.489 185.769 234.735 183.013 231.337 183.013C227.939 183.013 225.184 185.769 225.184 189.168V210.997L147.2 256.201L147.199 165.902L224.411 121.327V160.833C224.411 166.231 230.238 169.618 234.925 166.944L278.115 142.309C280.309 141.058 281.663 138.725 281.663 136.199V84.7583C281.663 82.2483 280.326 79.9285 278.155 78.6709L143.751 0.829291Z" fill="white"/>
</svg>
