<svg id="Layer_1" data-name="Layer 1" xmlns="http://www.w3.org/2000/svg" width="14.7cm" height="4.92cm" viewBox="0 0 416.75 139.48">
  <defs>
    <style>
      .cls-1 {
        fill: #e8e8e8;
      }
    </style>
  </defs>
  <g>
    <path class="cls-1" d="M20.39,119.09Q0,98.64,0,69.74T20.39,20.45Q40.84,0,69.74,0T119,20.45q20.44,20.44,20.45,49.29T119,119.09q-20.44,20.39-49.29,20.39T20.39,119.09Zm74-24.73a33.47,33.47,0,0,0,10.25-24.62A33.47,33.47,0,0,0,94.36,45.12,33.47,33.47,0,0,0,69.74,34.87,33.47,33.47,0,0,0,45.12,45.12,33.47,33.47,0,0,0,34.87,69.74,33.47,33.47,0,0,0,45.12,94.36a33.47,33.47,0,0,0,24.62,10.25A33.47,33.47,0,0,0,94.36,94.36Z"/>
    <path class="cls-1" d="M257.58,20.45Q237.14,0,208.28,0T158.93,20.45q-20.38,20.43-20.39,49.28h0v69.75h34.87V69.74a33.47,33.47,0,0,1,10.25-24.62,34.69,34.69,0,0,1,49.24,0,33.47,33.47,0,0,1,10.25,24.62H278Q278,40.89,257.58,20.45Z"/>
    <path class="cls-1" d="M416.75,69.73q0-28.85-20.44-49.28T347,0q-28.9,0-49.35,20.45T277.27,69.74q0,28.91,20.39,49.35T347,139.48V104.61a33.48,33.48,0,0,1-24.62-10.25,33.47,33.47,0,0,1-10.25-24.62,33.47,33.47,0,0,1,10.25-24.62,34.69,34.69,0,0,1,49.24,0,33.47,33.47,0,0,1,10.25,24.62v69.74h34.87V69.73Z"/>
  </g>
</svg>
