<svg width="1158" height="1158" viewBox="0 0 1158 1158" fill="none" xmlns="http://www.w3.org/2000/svg">
<path d="M169.177 988.295C56.3924 875.208 0 738.629 0 578.719C0 418.81 56.3924 282.717 169.177 169.63C282.286 56.5434 418.892 0 578.832 0C738.772 0 874.892 56.5434 988.001 169.63C1101.11 282.717 1157.66 419.134 1157.66 578.719C1157.66 738.305 1101.11 875.208 988.001 988.295C874.892 1101.06 738.448 1157.44 578.832 1157.44C419.216 1157.44 282.286 1101.06 169.177 988.295ZM783.335 783.021C840.052 726.64 868.41 658.593 868.41 578.719C868.41 498.846 840.052 430.799 783.335 374.418C726.943 317.712 658.883 289.36 578.994 289.36C499.105 289.36 431.045 317.712 374.653 374.418C317.936 430.799 289.578 498.846 289.578 578.719C289.578 658.593 317.936 726.64 374.653 783.021C431.045 839.726 499.105 868.079 578.994 868.079C658.883 868.079 726.943 839.726 783.335 783.021Z" fill="#00F6FF"/>
</svg>
