<svg width="1126" height="325" viewBox="0 0 1126 325" fill="none" xmlns="http://www.w3.org/2000/svg">
<path d="M143.751 0.829291C140.811 -0.873824 137.047 0.130283 135.344 3.07203C133.642 6.01377 134.645 9.77917 137.586 11.4823L269.359 87.7999V133.134L236.716 151.753V111.183C236.716 111.032 236.711 110.881 236.702 110.732C236.712 109.668 236.447 108.589 235.877 107.601C235.294 106.59 234.467 105.807 233.514 105.284C233.418 105.222 233.32 105.161 233.221 105.104L98.8155 26.8679C95.8785 25.1584 92.1123 26.1542 90.4034 29.0922C88.6945 32.0303 89.69 35.7978 92.6269 37.5074L128.584 58.4375L115.419 66.355C112.507 68.1064 111.565 71.8878 113.316 74.8011C115.067 77.7143 118.847 78.6562 121.759 76.9048L140.72 65.5016L218.285 110.651L141.467 154.998L63.5025 110.625L97.826 90.7458C102.486 88.0468 102.508 81.3237 97.8658 78.5942L54.6627 53.1935C52.4634 51.9004 49.7365 51.9004 47.5372 53.1935L3.46865 79.103C1.31967 80.3665 -3.51303e-05 82.6737 -8.30759e-06 85.1673L0.0011897 240.442C0.00121652 243.842 2.75581 246.597 6.15374 246.597C9.55166 246.597 12.3062 243.841 12.3062 240.442L12.305 88.1859L51.1 65.3769L83.8369 84.6241L48.4558 105.116C48.3418 105.182 48.2301 105.25 48.1208 105.322C47.1854 105.851 46.3767 106.632 45.8067 107.634C45.343 108.45 45.0858 109.326 45.0186 110.203C44.9716 110.532 44.9474 110.865 44.9474 111.202L44.9377 266.872C44.9375 270.272 47.6919 273.027 51.0898 273.028C54.4877 273.028 57.2425 270.272 57.2427 266.873L57.2452 225.66L69.6788 233.102C72.5946 234.848 76.3727 233.898 78.1174 230.981C79.8621 228.064 78.9127 224.285 75.9969 222.539L57.2461 211.315L57.2518 121.23L134.894 165.419L134.895 256.2L100.477 235.964C95.7899 233.208 89.8831 236.59 89.8831 242.029V292.443C89.8831 294.953 91.2201 297.273 93.3915 298.531L137.46 324.053C139.64 325.316 142.328 325.316 144.508 324.052L278.912 246.163C281.853 244.459 282.855 240.694 281.152 237.752C279.449 234.811 275.685 233.808 272.744 235.512L140.982 311.87L102.188 289.402L102.188 251.248L137.423 271.964C139.609 273.25 142.318 273.258 144.511 271.986L234.417 219.872L234.421 219.87L278.927 194.114C281.869 192.412 282.874 188.647 281.172 185.704C279.471 182.762 275.707 181.756 272.766 183.459L237.489 203.873L237.489 189.168C237.489 185.769 234.735 183.013 231.337 183.013C227.939 183.013 225.184 185.769 225.184 189.168V210.997L147.2 256.201L147.199 165.902L224.411 121.327V160.833C224.411 166.231 230.238 169.618 234.925 166.944L278.115 142.309C280.309 141.058 281.663 138.725 281.663 136.199V84.7583C281.663 82.2483 280.326 79.9285 278.155 78.6709L143.751 0.829291Z" fill="black"/>
<path d="M362.902 168.074V200.577H347V123.423H362.902V154.941H397.193V123.423H413.094V200.577H397.193V168.074H362.902Z" fill="black"/>
<path d="M447.665 169.497L423.217 124.189V123.423H439.66L456.319 156.692L472.977 123.423H487.581V124.189L463.566 168.84V200.577H447.665V169.497Z" fill="black"/>
<path d="M513.538 200.577H497.852V123.423H523.273C532.432 123.423 539.572 125.502 544.692 129.661C549.884 133.819 552.48 139.984 552.48 148.156C552.48 156.109 549.956 162.164 544.908 166.323C539.932 170.409 533.153 172.451 524.571 172.451H513.538V200.577ZM513.538 160.851H523.49C528.321 160.851 531.819 159.793 533.983 157.677C536.218 155.488 537.336 152.205 537.336 147.828C537.336 143.669 536.146 140.605 533.766 138.635C531.459 136.665 527.853 135.68 522.949 135.68H513.538V160.851Z" fill="black"/>
<path d="M610.158 123.423V135.68H580.301V154.832H606.047V166.87H580.301V188.32H610.482V200.577H564.616V123.423H610.158Z" fill="black"/>
<path d="M640.727 171.576V200.577H625.042V123.423H651.544C660.775 123.423 667.879 125.466 672.855 129.551C677.903 133.637 680.427 139.51 680.427 147.171C680.427 152.424 679.165 156.838 676.641 160.413C674.117 163.988 670.547 166.542 665.932 168.074L685.511 199.592V200.577H668.852L651.328 171.576H640.727ZM640.727 159.866H650.679C660.27 159.866 665.066 155.671 665.066 147.28C665.066 143.195 663.876 140.203 661.496 138.306C659.117 136.409 655.33 135.461 650.138 135.461H640.727V159.866Z" fill="black"/>
<path d="M714.208 161.726C714.208 154.212 715.866 147.426 719.184 141.371C722.501 135.315 727.116 130.573 733.03 127.144C739.016 123.715 745.831 122 753.475 122C761.119 122 767.898 123.715 773.812 127.144C779.725 130.573 784.341 135.315 787.658 141.371C790.975 147.426 792.634 154.212 792.634 161.726C792.634 169.241 790.975 176.063 787.658 182.192C784.341 188.32 779.689 193.172 773.704 196.747C767.79 200.249 761.047 202 753.475 202C745.831 202 739.016 200.249 733.03 196.747C727.116 193.172 722.501 188.32 719.184 182.192C715.866 176.063 714.208 169.241 714.208 161.726ZM776.408 161.726C776.408 156.181 775.47 151.366 773.595 147.28C771.72 143.195 769.052 140.057 765.59 137.869C762.129 135.607 758.09 134.476 753.475 134.476C748.859 134.476 744.821 135.607 741.359 137.869C737.898 140.057 735.23 143.195 733.355 147.28C731.479 151.366 730.542 156.181 730.542 161.726C730.542 167.271 731.479 172.16 733.355 176.391C735.23 180.55 737.898 183.797 741.359 186.131C744.821 188.393 748.859 189.524 753.475 189.524C758.09 189.524 762.129 188.393 765.59 186.131C769.052 183.797 771.72 180.55 773.595 176.391C775.47 172.16 776.408 167.271 776.408 161.726Z" fill="black"/>
<path d="M821.053 171.576V200.577H805.367V123.423H831.87C841.101 123.423 848.204 125.466 853.18 129.551C858.228 133.637 860.753 139.51 860.753 147.171C860.753 152.424 859.49 156.838 856.966 160.413C854.442 163.988 850.873 166.542 846.257 168.074L865.837 199.592V200.577H849.178L831.654 171.576H821.053ZM821.053 159.866H831.005C840.596 159.866 845.392 155.671 845.392 147.28C845.392 143.195 844.202 140.203 841.822 138.306C839.442 136.409 835.656 135.461 830.464 135.461H821.053V159.866Z" fill="black"/>
<path d="M891.04 183.395L885.091 200.577H870.704V199.811L899.045 123.423H914.19L942.531 199.811V200.577H926.197L920.248 183.395H891.04ZM895.043 171.795H916.245L905.644 141.261L895.043 171.795Z" fill="black"/>
<path d="M945.134 161.726C945.134 153.993 946.865 147.135 950.327 141.152C953.788 135.096 958.62 130.39 964.822 127.034C971.024 123.678 978.055 122 985.916 122C990.676 122 994.678 122.365 997.923 123.094C1001.24 123.824 1004.38 124.955 1007.33 126.487V140.276L1006.79 140.605C1003.98 138.635 1001.02 137.176 997.923 136.227C994.895 135.206 991.361 134.695 987.322 134.695C982.13 134.695 977.587 135.789 973.692 137.978C969.798 140.167 966.769 143.304 964.606 147.39C962.514 151.476 961.469 156.254 961.469 161.726C961.469 167.198 962.55 172.014 964.714 176.172C966.877 180.331 969.978 183.541 974.017 185.803C978.055 188.065 982.743 189.196 988.08 189.196C992.407 189.196 996.157 188.612 999.33 187.445C1002.5 186.204 1005.64 184.307 1008.74 181.754L1009.39 182.082V195.762C1006.58 197.732 1003.4 199.264 999.871 200.358C996.409 201.453 992.01 202 986.673 202C978.524 202 971.276 200.285 964.93 196.856C958.656 193.427 953.788 188.648 950.327 182.52C946.865 176.391 945.134 169.46 945.134 161.726Z" fill="black"/>
<path d="M1038.78 123.423V187.773H1067.34V200.577H1022.88V123.423H1038.78Z" fill="black"/>
<path d="M1125.68 123.423V135.68H1095.82V154.832H1121.56V166.87H1095.82V188.32H1126V200.577H1080.13V123.423H1125.68Z" fill="black"/>
</svg>
