<svg width="792" height="326" viewBox="0 0 792 326" fill="none" xmlns="http://www.w3.org/2000/svg">
<path fill-rule="evenodd" clip-rule="evenodd" d="M168.271 166.804C170.143 163.569 169.039 159.43 165.804 157.558L76.9272 106.126C73.6923 104.254 69.5524 105.359 67.6804 108.594C65.8085 111.829 66.9133 115.969 70.1482 117.841L159.025 169.272C162.26 171.144 166.4 170.039 168.271 166.804Z" fill="url(#paint0_linear_2085_6131)"/>
<path fill-rule="evenodd" clip-rule="evenodd" d="M162.414 272.142C166.151 272.142 169.181 269.112 169.181 265.375L169.181 163.415C169.181 159.677 166.151 156.648 162.414 156.648C158.676 156.647 155.647 159.677 155.647 163.415L155.646 265.375C155.646 269.112 158.676 272.142 162.414 272.142Z" fill="url(#paint1_linear_2085_6131)"/>
<path fill-rule="evenodd" clip-rule="evenodd" d="M156.585 166.853C158.484 170.072 162.633 171.142 165.852 169.244L254.611 116.894C257.83 114.995 258.901 110.846 257.002 107.627C255.103 104.408 250.954 103.337 247.735 105.236L158.976 157.586C155.757 159.485 154.687 163.633 156.585 166.853Z" fill="url(#paint2_linear_2085_6131)"/>
<path fill-rule="evenodd" clip-rule="evenodd" d="M301.992 236.869C303.865 240.103 302.762 244.244 299.528 246.117L168.344 322.112C164.568 324.299 159.911 324.3 156.135 322.113L116.918 299.409C113.156 297.231 110.84 293.214 110.84 288.867L110.84 249.38C110.84 239.961 121.072 234.105 129.193 238.878L162.263 258.314L245.19 210.262L245.19 188.974C245.19 185.237 248.22 182.207 251.957 182.207C255.695 182.207 258.724 185.236 258.724 188.974L258.724 202.43L292.765 182.737C296.001 180.866 300.14 181.971 302.012 185.206C303.883 188.441 302.778 192.581 299.543 194.453L168.365 270.42C164.564 272.623 159.873 272.608 156.086 270.382L124.374 251.745L124.374 288.087L162.238 310.008L292.744 234.406C295.978 232.532 300.118 233.635 301.992 236.869Z" fill="url(#paint3_linear_2085_6131)"/>
<path fill-rule="evenodd" clip-rule="evenodd" d="M28.3567 246.639C24.6193 246.639 21.5894 243.609 21.5894 239.872L21.5882 88.3434C21.5882 84.0252 23.8744 80.0297 27.5973 77.8417L66.815 54.7926C70.6251 52.5534 75.3491 52.5534 79.1591 54.7926L113.046 74.7087C121.089 79.4355 121.051 91.0782 112.977 95.7522L79.7541 114.987L79.7481 210.587L98.047 221.536C101.254 223.455 102.298 227.611 100.379 230.818C98.4602 234.025 94.3046 235.07 91.0975 233.15L79.7471 226.359L79.7447 266.107C79.7444 269.844 76.7144 272.874 72.977 272.874C69.2395 272.874 66.2099 269.844 66.2101 266.106L66.2196 114.206C66.2198 109.859 68.536 105.842 72.2975 103.665L104.188 85.2016L72.9871 66.8642L35.1228 89.1178L35.124 239.872C35.124 243.609 32.0942 246.639 28.3567 246.639Z" fill="url(#paint4_linear_2085_6131)"/>
<path fill-rule="evenodd" clip-rule="evenodd" d="M156.107 3.9247C157.98 0.690449 162.12 -0.413036 165.354 1.46L296.646 77.4941C300.407 79.6722 302.722 83.6891 302.722 88.0352V133.894C302.722 138.268 300.376 142.307 296.576 144.475L262.74 163.773C254.619 168.405 244.524 162.541 244.524 153.192L244.524 115.064L162.019 67.0418L143.51 78.1726C140.307 80.0987 136.149 79.0637 134.223 75.8608C132.297 72.6579 133.332 68.5 136.535 66.5738L148.673 59.274L113.894 39.0309C110.664 37.1508 109.57 33.0081 111.45 29.778C113.33 26.5478 117.473 25.4534 120.703 27.3335L252.005 103.758C255.753 105.939 258.058 109.949 258.058 114.285V150.862L289.188 133.107V88.8154L158.571 13.1723C155.337 11.2992 154.234 7.15896 156.107 3.9247Z" fill="url(#paint5_linear_2085_6131)"/>
<path d="M399.452 97.6633V130.042H383.542V53.1836H399.452V84.581H433.76V53.1836H449.67V130.042H433.76V97.6633H399.452Z" fill="white"/>
<path d="M484.258 99.0805L459.798 53.9467V53.1836H476.249L492.916 86.3253L509.583 53.1836H524.194V53.9467L500.167 98.4264V130.042H484.258V99.0805Z" fill="white"/>
<path d="M550.164 130.042H534.471V53.1836H559.904C569.068 53.1836 576.211 55.255 581.334 59.3977C586.529 63.5404 589.126 69.6818 589.126 77.8218C589.126 85.7439 586.601 91.7763 581.55 95.919C576.572 99.989 569.789 102.024 561.203 102.024H550.164V130.042ZM550.164 90.468H560.121C564.955 90.468 568.455 89.4142 570.619 87.3065C572.856 85.1261 573.974 81.8555 573.974 77.4948C573.974 73.3521 572.784 70.2996 570.403 68.3372C568.094 66.3749 564.486 65.3937 559.58 65.3937H550.164V90.468Z" fill="white"/>
<path d="M646.832 53.1836V65.3937H616.961V84.472H642.72V96.4641H616.961V117.832H647.157V130.042H601.268V53.1836H646.832Z" fill="white"/>
<path d="M677.417 101.152V130.042H661.724V53.1836H688.24C697.476 53.1836 704.583 55.2186 709.561 59.2886C714.612 63.3587 717.137 69.2094 717.137 76.8407C717.137 82.0736 715.875 86.4707 713.349 90.032C710.824 93.5932 707.252 96.137 702.635 97.6633L722.224 129.061V130.042H705.557L688.024 101.152H677.417ZM677.417 89.4869H687.374C696.971 89.4869 701.769 85.3078 701.769 76.9497C701.769 72.8797 700.578 69.8998 698.197 68.0102C695.816 66.1205 692.028 65.1757 686.833 65.1757H677.417V89.4869Z" fill="white"/>
<path d="M379.321 233.065C379.321 225.579 380.981 218.82 384.3 212.787C387.619 206.755 392.237 202.031 398.153 198.615C404.142 195.199 410.96 193.491 418.608 193.491C426.257 193.491 433.039 195.199 438.955 198.615C444.872 202.031 449.49 206.755 452.809 212.787C456.128 218.82 457.787 225.579 457.787 233.065C457.787 240.551 456.128 247.346 452.809 253.451C449.49 259.556 444.836 264.389 438.847 267.951C432.931 271.439 426.184 273.184 418.608 273.184C410.96 273.184 404.142 271.439 398.153 267.951C392.237 264.389 387.619 259.556 384.3 253.451C380.981 247.346 379.321 240.551 379.321 233.065ZM441.553 233.065C441.553 227.541 440.615 222.744 438.739 218.674C436.863 214.604 434.193 211.479 430.73 209.299C427.267 207.046 423.226 205.919 418.608 205.919C413.991 205.919 409.95 207.046 406.487 209.299C403.023 211.479 400.354 214.604 398.478 218.674C396.602 222.744 395.664 227.541 395.664 233.065C395.664 238.588 396.602 243.458 398.478 247.673C400.354 251.816 403.023 255.05 406.487 257.376C409.95 259.629 413.991 260.755 418.608 260.755C423.226 260.755 427.267 259.629 430.73 257.376C434.193 255.05 436.863 251.816 438.739 247.673C440.615 243.458 441.553 238.588 441.553 233.065Z" fill="white"/>
<path d="M486.22 242.876V271.766H470.527V194.908H497.043C506.278 194.908 513.385 196.943 518.364 201.013C523.415 205.083 525.94 210.934 525.94 218.565C525.94 223.798 524.677 228.195 522.152 231.756C519.627 235.318 516.055 237.862 511.437 239.388L531.027 270.785V271.766H514.36L496.826 242.876H486.22ZM486.22 231.211H496.177C505.773 231.211 510.572 227.032 510.572 218.674C510.572 214.604 509.381 211.624 507 209.735C504.619 207.845 500.831 206.9 495.636 206.9H486.22V231.211Z" fill="white"/>
<path d="M556.243 254.65L550.291 271.766H535.896V271.003L564.252 194.908H579.404L607.76 271.003V271.766H591.418L585.465 254.65H556.243ZM560.248 243.094H581.461L570.854 212.678L560.248 243.094Z" fill="white"/>
<path d="M610.364 233.065C610.364 225.361 612.096 218.529 615.559 212.569C619.023 206.537 623.857 201.849 630.062 198.506C636.267 195.162 643.302 193.491 651.167 193.491C655.929 193.491 659.933 193.854 663.18 194.581C666.499 195.308 669.638 196.434 672.596 197.961V211.697L672.055 212.024C669.241 210.062 666.283 208.608 663.18 207.663C660.15 206.646 656.614 206.137 652.574 206.137C647.379 206.137 642.833 207.227 638.937 209.408C635.041 211.588 632.01 214.713 629.846 218.783C627.753 222.853 626.707 227.614 626.707 233.065C626.707 238.516 627.789 243.312 629.954 247.455C632.118 251.598 635.221 254.796 639.261 257.049C643.302 259.302 647.992 260.428 653.331 260.428C657.66 260.428 661.412 259.847 664.587 258.684C667.762 257.449 670.9 255.559 674.003 253.015L674.652 253.342V266.97C671.838 268.932 668.664 270.458 665.128 271.548C661.665 272.639 657.264 273.184 651.924 273.184C643.771 273.184 636.52 271.476 630.17 268.06C623.893 264.644 619.023 259.883 615.559 253.778C612.096 247.673 610.364 240.769 610.364 233.065Z" fill="white"/>
<path d="M704.057 194.908V259.011H732.629V271.766H688.147V194.908H704.057Z" fill="white"/>
<path d="M790.997 194.908V207.118H761.125V226.196H786.884V238.189H761.125V259.556H791.321V271.766H745.432V194.908H790.997Z" fill="white"/>
<defs>
<linearGradient id="paint0_linear_2085_6131" x1="162.414" y1="163.415" x2="148.469" y2="179.984" gradientUnits="userSpaceOnUse">
<stop stop-color="#BD3E7F"/>
<stop offset="1" stop-color="#B74296"/>
</linearGradient>
<linearGradient id="paint1_linear_2085_6131" x1="162.414" y1="163.415" x2="154.271" y2="260.178" gradientUnits="userSpaceOnUse">
<stop stop-color="#BD3E7F"/>
<stop offset="1" stop-color="#F26E40"/>
</linearGradient>
<linearGradient id="paint2_linear_2085_6131" x1="162.753" y1="163.16" x2="254.228" y2="113.331" gradientUnits="userSpaceOnUse">
<stop stop-color="#BD3E7F"/>
<stop offset="1" stop-color="#59987D"/>
</linearGradient>
<linearGradient id="paint3_linear_2085_6131" x1="300.895" y1="187.408" x2="111.407" y2="293.897" gradientUnits="userSpaceOnUse">
<stop stop-color="#FDD22F"/>
<stop offset="1" stop-color="#ED4946"/>
</linearGradient>
<linearGradient id="paint4_linear_2085_6131" x1="72.0334" y1="270.256" x2="72.0666" y2="55.7522" gradientUnits="userSpaceOnUse">
<stop stop-color="#ED4946"/>
<stop offset="1" stop-color="#A13EB4"/>
</linearGradient>
<linearGradient id="paint5_linear_2085_6131" x1="117.443" y1="32.6648" x2="296.451" y2="135.318" gradientUnits="userSpaceOnUse">
<stop stop-color="#734DBA"/>
<stop offset="0.291667" stop-color="#5260B8"/>
<stop offset="1" stop-color="#5BB35F"/>
</linearGradient>
</defs>
</svg>
