<svg width="1147" height="326" viewBox="0 0 1147 326" fill="none" xmlns="http://www.w3.org/2000/svg">
<path d="M383.902 168.498V200.595H368V124.405H383.902V155.529H418.193V124.405H434.094V200.595H418.193V168.498H383.902Z" fill="black"/>
<path d="M468.665 169.903L444.217 125.161V124.405H460.66L477.319 157.259L493.977 124.405H508.581V125.161L484.566 169.254V200.595H468.665V169.903Z" fill="black"/>
<path d="M534.538 200.595H518.852V124.405H544.273C553.432 124.405 560.572 126.458 565.692 130.565C570.884 134.672 573.48 140.76 573.48 148.829C573.48 156.682 570.956 162.662 565.908 166.769C560.932 170.803 554.153 172.821 545.571 172.821H534.538V200.595ZM534.538 161.365H544.49C549.321 161.365 552.819 160.321 554.983 158.231C557.218 156.07 558.336 152.828 558.336 148.505C558.336 144.398 557.146 141.372 554.766 139.427C552.459 137.482 548.853 136.509 543.949 136.509H534.538V161.365Z" fill="black"/>
<path d="M631.158 124.405V136.509H601.301V155.421H627.047V167.309H601.301V188.491H631.482V200.595H585.616V124.405H631.158Z" fill="black"/>
<path d="M661.727 171.956V200.595H646.042V124.405H672.544C681.775 124.405 688.879 126.422 693.855 130.457C698.903 134.492 701.427 140.291 701.427 147.856C701.427 153.044 700.165 157.403 697.641 160.933C695.117 164.463 691.547 166.985 686.932 168.498L706.511 199.622V200.595H689.852L672.328 171.956H661.727ZM661.727 160.393H671.679C681.27 160.393 686.066 156.25 686.066 147.964C686.066 143.93 684.876 140.976 682.496 139.103C680.117 137.229 676.33 136.293 671.138 136.293H661.727V160.393Z" fill="black"/>
<path d="M735.208 162.23C735.208 154.809 736.866 148.109 740.184 142.129C743.501 136.149 748.116 131.466 754.03 128.079C760.016 124.693 766.831 123 774.475 123C782.119 123 788.898 124.693 794.812 128.079C800.725 131.466 805.341 136.149 808.658 142.129C811.975 148.109 813.634 154.809 813.634 162.23C813.634 169.651 811.975 176.387 808.658 182.439C805.341 188.491 800.689 193.282 794.704 196.813C788.79 200.271 782.047 202 774.475 202C766.831 202 760.016 200.271 754.03 196.813C748.116 193.282 743.501 188.491 740.184 182.439C736.866 176.387 735.208 169.651 735.208 162.23ZM797.408 162.23C797.408 156.754 796.47 151.999 794.595 147.964C792.72 143.93 790.052 140.832 786.59 138.67C783.129 136.437 779.09 135.32 774.475 135.32C769.859 135.32 765.821 136.437 762.359 138.67C758.898 140.832 756.23 143.93 754.355 147.964C752.479 151.999 751.542 156.754 751.542 162.23C751.542 167.705 752.479 172.533 754.355 176.711C756.23 180.818 758.898 184.024 762.359 186.33C765.821 188.563 769.859 189.68 774.475 189.68C779.09 189.68 783.129 188.563 786.59 186.33C790.052 184.024 792.72 180.818 794.595 176.711C796.47 172.533 797.408 167.705 797.408 162.23Z" fill="black"/>
<path d="M842.053 171.956V200.595H826.367V124.405H852.87C862.101 124.405 869.204 126.422 874.18 130.457C879.228 134.492 881.753 140.291 881.753 147.856C881.753 153.044 880.49 157.403 877.966 160.933C875.442 164.463 871.873 166.985 867.257 168.498L886.837 199.622V200.595H870.178L852.654 171.956H842.053ZM842.053 160.393H852.005C861.596 160.393 866.392 156.25 866.392 147.964C866.392 143.93 865.202 140.976 862.822 139.103C860.442 137.229 856.656 136.293 851.464 136.293H842.053V160.393Z" fill="black"/>
<path d="M912.04 183.628L906.091 200.595H891.704V199.839L920.045 124.405H935.19L963.531 199.839V200.595H947.197L941.248 183.628H912.04ZM916.043 172.172H937.245L926.644 142.021L916.043 172.172Z" fill="black"/>
<path d="M966.134 162.23C966.134 154.593 967.865 147.82 971.327 141.912C974.788 135.933 979.62 131.285 985.822 127.971C992.024 124.657 999.055 123 1006.92 123C1011.68 123 1015.68 123.36 1018.92 124.081C1022.24 124.801 1025.38 125.918 1028.33 127.431V141.048L1027.79 141.372C1024.98 139.427 1022.02 137.986 1018.92 137.049C1015.89 136.041 1012.36 135.536 1008.32 135.536C1003.13 135.536 998.587 136.617 994.692 138.778C990.798 140.94 987.769 144.038 985.606 148.073C983.514 152.107 982.469 156.826 982.469 162.23C982.469 167.633 983.55 172.389 985.714 176.495C987.877 180.602 990.978 183.772 995.017 186.005C999.055 188.239 1003.74 189.356 1009.08 189.356C1013.41 189.356 1017.16 188.779 1020.33 187.627C1023.5 186.402 1026.64 184.528 1029.74 182.007L1030.39 182.331V195.84C1027.58 197.785 1024.4 199.298 1020.87 200.379C1017.41 201.46 1013.01 202 1007.67 202C999.524 202 992.276 200.307 985.93 196.921C979.656 193.534 974.788 188.815 971.327 182.763C967.865 176.711 966.134 169.867 966.134 162.23Z" fill="black"/>
<path d="M1059.78 124.405V187.951H1088.34V200.595H1043.88V124.405H1059.78Z" fill="black"/>
<path d="M1146.68 124.405V136.509H1116.82V155.421H1142.56V167.309H1116.82V188.491H1147V200.595H1101.13V124.405H1146.68Z" fill="black"/>
<path fill-rule="evenodd" clip-rule="evenodd" d="M168.272 166.804C170.144 163.569 169.04 159.43 165.805 157.558L76.9281 106.126C73.6933 104.254 69.5534 105.359 67.6814 108.594C65.8094 111.829 66.9143 115.969 70.1492 117.841L159.026 169.272C162.261 171.144 166.4 170.039 168.272 166.804Z" fill="url(#paint0_linear_2085_6135)"/>
<path fill-rule="evenodd" clip-rule="evenodd" d="M162.414 272.142C166.152 272.142 169.181 269.112 169.181 265.375L169.182 163.415C169.182 159.677 166.152 156.648 162.414 156.648C158.677 156.647 155.647 159.677 155.647 163.415L155.647 265.375C155.647 269.112 158.677 272.142 162.414 272.142Z" fill="url(#paint1_linear_2085_6135)"/>
<path fill-rule="evenodd" clip-rule="evenodd" d="M156.586 166.853C158.484 170.072 162.633 171.142 165.853 169.244L254.611 116.894C257.831 114.995 258.901 110.846 257.002 107.627C255.104 104.408 250.955 103.337 247.736 105.236L158.977 157.586C155.758 159.485 154.687 163.633 156.586 166.853Z" fill="url(#paint2_linear_2085_6135)"/>
<path fill-rule="evenodd" clip-rule="evenodd" d="M301.992 236.869C303.866 240.103 302.763 244.244 299.529 246.117L168.344 322.112C164.569 324.299 159.911 324.3 156.135 322.113L116.918 299.409C113.156 297.231 110.84 293.214 110.84 288.867L110.84 249.38C110.84 239.961 121.073 234.105 129.193 238.878L162.263 258.314L245.19 210.262L245.19 188.974C245.19 185.237 248.22 182.207 251.958 182.207C255.695 182.207 258.725 185.236 258.725 188.974L258.725 202.43L292.766 182.737C296.001 180.866 300.141 181.971 302.012 185.206C303.884 188.441 302.778 192.581 299.543 194.453L168.365 270.42C164.565 272.623 159.873 272.608 156.086 270.382L124.375 251.745L124.375 288.087L162.238 310.008L292.745 234.406C295.979 232.532 300.119 233.635 301.992 236.869Z" fill="url(#paint3_linear_2085_6135)"/>
<path fill-rule="evenodd" clip-rule="evenodd" d="M28.3572 246.639C24.6198 246.639 21.5899 243.609 21.5899 239.872L21.5887 88.3435C21.5887 84.0253 23.8749 80.0297 27.5978 77.8417L66.8155 54.7927C70.6255 52.5535 75.3495 52.5535 79.1596 54.7927L113.047 74.7088C121.089 79.4355 121.051 91.0783 112.978 95.7523L79.7546 114.987L79.7486 210.587L98.0474 221.536C101.255 223.455 102.299 227.611 100.38 230.818C98.4607 234.025 94.3051 235.07 91.0979 233.151L79.7476 226.359L79.7452 266.107C79.7449 269.845 76.7149 272.874 72.9775 272.874C69.24 272.874 66.2104 269.844 66.2106 266.106L66.2201 114.206C66.2203 109.859 68.5365 105.842 72.298 103.665L104.188 85.2017L72.9875 66.8643L35.1233 89.1179L35.1244 239.872C35.1245 243.609 32.0947 246.639 28.3572 246.639Z" fill="url(#paint4_linear_2085_6135)"/>
<path fill-rule="evenodd" clip-rule="evenodd" d="M156.108 3.9247C157.981 0.690449 162.121 -0.413036 165.355 1.46L296.647 77.4941C300.408 79.6722 302.723 83.6891 302.723 88.0352V133.894C302.723 138.268 300.377 142.307 296.577 144.475L262.741 163.773C254.62 168.405 244.525 162.541 244.525 153.192L244.525 115.064L162.02 67.0418L143.511 78.1726C140.308 80.0987 136.15 79.0637 134.224 75.8608C132.298 72.6579 133.333 68.5 136.536 66.5738L148.674 59.274L113.895 39.0309C110.665 37.1508 109.571 33.0081 111.451 29.778C113.331 26.5478 117.474 25.4534 120.704 27.3335L252.006 103.758C255.754 105.939 258.059 109.949 258.059 114.285V150.862L289.189 133.107V88.8154L158.572 13.1723C155.338 11.2992 154.235 7.15896 156.108 3.9247Z" fill="url(#paint5_linear_2085_6135)"/>
<defs>
<linearGradient id="paint0_linear_2085_6135" x1="162.415" y1="163.415" x2="148.47" y2="179.984" gradientUnits="userSpaceOnUse">
<stop stop-color="#BD3E7F"/>
<stop offset="1" stop-color="#B74296"/>
</linearGradient>
<linearGradient id="paint1_linear_2085_6135" x1="162.415" y1="163.415" x2="154.272" y2="260.178" gradientUnits="userSpaceOnUse">
<stop stop-color="#BD3E7F"/>
<stop offset="1" stop-color="#F26E40"/>
</linearGradient>
<linearGradient id="paint2_linear_2085_6135" x1="162.754" y1="163.16" x2="254.228" y2="113.331" gradientUnits="userSpaceOnUse">
<stop stop-color="#BD3E7F"/>
<stop offset="1" stop-color="#59987D"/>
</linearGradient>
<linearGradient id="paint3_linear_2085_6135" x1="300.896" y1="187.408" x2="111.407" y2="293.897" gradientUnits="userSpaceOnUse">
<stop stop-color="#FDD22F"/>
<stop offset="1" stop-color="#ED4946"/>
</linearGradient>
<linearGradient id="paint4_linear_2085_6135" x1="72.0339" y1="270.256" x2="72.0671" y2="55.7523" gradientUnits="userSpaceOnUse">
<stop stop-color="#ED4946"/>
<stop offset="1" stop-color="#A13EB4"/>
</linearGradient>
<linearGradient id="paint5_linear_2085_6135" x1="117.444" y1="32.6648" x2="296.452" y2="135.318" gradientUnits="userSpaceOnUse">
<stop stop-color="#734DBA"/>
<stop offset="0.291667" stop-color="#5260B8"/>
<stop offset="1" stop-color="#5BB35F"/>
</linearGradient>
</defs>
</svg>
