<svg width="780" height="527" viewBox="0 0 780 527" fill="none" xmlns="http://www.w3.org/2000/svg">
<path d="M15.922 493.41V525.507H0V449.317H15.922V480.442H50.2573V449.317H66.1793V525.507H50.2573V493.41H15.922Z" fill="white"/>
<path d="M100.794 494.815L76.3151 450.074V449.317H92.7787L109.459 482.171L126.139 449.317H140.761V450.074L116.716 494.167V525.507H100.794V494.815Z" fill="white"/>
<path d="M166.751 525.507H151.046V449.317H176.5C185.67 449.317 192.819 451.37 197.946 455.477C203.145 459.584 205.744 465.672 205.744 473.741C205.744 481.594 203.217 487.574 198.162 491.681C193.18 495.716 186.392 497.733 177.799 497.733H166.751V525.507ZM166.751 486.277H176.716C181.554 486.277 185.056 485.233 187.223 483.143C189.461 480.982 190.58 477.74 190.58 473.417C190.58 469.31 189.389 466.284 187.006 464.339C184.695 462.394 181.085 461.421 176.175 461.421H166.751V486.277Z" fill="white"/>
<path d="M263.495 449.317V461.421H233.601V480.333H259.379V492.221H233.601V513.403H263.82V525.507H217.896V449.317H263.495Z" fill="white"/>
<path d="M294.104 496.868V525.507H278.399V449.317H304.935C314.178 449.317 321.291 451.334 326.273 455.369C331.328 459.404 333.855 465.203 333.855 472.768C333.855 477.956 332.591 482.315 330.064 485.845C327.537 489.375 323.962 491.897 319.341 493.41L338.946 524.535V525.507H322.265L304.719 496.868H294.104ZM294.104 485.305H304.069C313.673 485.305 318.474 481.162 318.474 472.877C318.474 468.842 317.283 465.888 314.9 464.015C312.517 462.141 308.726 461.205 303.527 461.205H294.104V485.305Z" fill="white"/>
<path d="M367.679 487.142C367.679 479.721 369.34 473.021 372.661 467.041C375.983 461.061 380.604 456.378 386.526 452.991C392.519 449.605 399.343 447.912 406.997 447.912C414.651 447.912 421.438 449.605 427.36 452.991C433.281 456.378 437.902 461.061 441.224 467.041C444.545 473.021 446.206 479.721 446.206 487.142C446.206 494.563 444.545 501.299 441.224 507.351C437.902 513.403 433.245 518.194 427.251 521.725C421.33 525.183 414.579 526.912 406.997 526.912C399.343 526.912 392.519 525.183 386.526 521.725C380.604 518.194 375.983 513.403 372.661 507.351C369.34 501.299 367.679 494.563 367.679 487.142ZM429.959 487.142C429.959 481.666 429.02 476.911 427.143 472.877C425.266 468.842 422.594 465.744 419.128 463.582C415.662 461.349 411.618 460.232 406.997 460.232C402.375 460.232 398.332 461.349 394.866 463.582C391.4 465.744 388.728 468.842 386.85 472.877C384.973 476.911 384.034 481.666 384.034 487.142C384.034 492.618 384.973 497.445 386.85 501.623C388.728 505.73 391.4 508.936 394.866 511.242C398.332 513.475 402.375 514.592 406.997 514.592C411.618 514.592 415.662 513.475 419.128 511.242C422.594 508.936 425.266 505.73 427.143 501.623C429.02 497.445 429.959 492.618 429.959 487.142Z" fill="white"/>
<path d="M474.661 496.868V525.507H458.956V449.317H485.492C494.735 449.317 501.848 451.334 506.83 455.369C511.885 459.404 514.412 465.203 514.412 472.768C514.412 477.956 513.148 482.315 510.621 485.845C508.094 489.375 504.519 491.897 499.898 493.41L519.503 524.535V525.507H502.823L485.276 496.868H474.661ZM474.661 485.305H484.626C494.23 485.305 499.032 481.162 499.032 472.877C499.032 468.842 497.84 465.888 495.457 464.015C493.074 462.141 489.283 461.205 484.084 461.205H474.661V485.305Z" fill="white"/>
<path d="M544.739 508.54L538.782 525.507H524.376V524.751L552.754 449.317H567.918L596.296 524.751V525.507H579.941L573.983 508.54H544.739ZM548.746 497.084H569.976L559.361 466.933L548.746 497.084Z" fill="white"/>
<path d="M598.902 487.142C598.902 479.505 600.635 472.732 604.101 466.825C607.567 460.845 612.405 456.198 618.615 452.883C624.825 449.569 631.865 447.912 639.736 447.912C644.502 447.912 648.51 448.272 651.759 448.993C655.081 449.713 658.222 450.83 661.182 452.343V465.96L660.641 466.284C657.825 464.339 654.864 462.898 651.759 461.961C648.726 460.953 645.188 460.448 641.144 460.448C635.945 460.448 631.396 461.529 627.497 463.69C623.598 465.852 620.565 468.95 618.399 472.985C616.304 477.019 615.257 481.738 615.257 487.142C615.257 492.545 616.341 497.301 618.507 501.407C620.673 505.514 623.778 508.684 627.822 510.918C631.865 513.151 636.559 514.268 641.903 514.268C646.235 514.268 649.99 513.691 653.167 512.539C656.344 511.314 659.485 509.441 662.59 506.919L663.24 507.243V520.752C660.424 522.697 657.247 524.21 653.709 525.291C650.243 526.372 645.838 526.912 640.494 526.912C632.335 526.912 625.078 525.219 618.724 521.833C612.441 518.447 607.567 513.727 604.101 507.675C600.635 501.623 598.902 494.779 598.902 487.142Z" fill="white"/>
<path d="M692.668 449.317V512.863H721.262V525.507H676.745V449.317H692.668Z" fill="white"/>
<path d="M779.675 449.317V461.421H749.781V480.333H775.559V492.221H749.781V513.403H780V525.507H734.075V449.317H779.675Z" fill="white"/>
<path fill-rule="evenodd" clip-rule="evenodd" d="M396.272 166.804C398.144 163.569 397.04 159.43 393.805 157.558L304.928 106.126C301.693 104.254 297.553 105.359 295.681 108.594C293.809 111.829 294.914 115.969 298.149 117.841L387.026 169.272C390.261 171.144 394.4 170.039 396.272 166.804Z" fill="url(#paint0_linear_2085_6137)"/>
<path fill-rule="evenodd" clip-rule="evenodd" d="M390.414 272.142C394.152 272.142 397.181 269.112 397.181 265.375L397.182 163.415C397.182 159.677 394.152 156.648 390.414 156.648C386.677 156.647 383.647 159.677 383.647 163.415L383.647 265.375C383.647 269.112 386.677 272.142 390.414 272.142Z" fill="url(#paint1_linear_2085_6137)"/>
<path fill-rule="evenodd" clip-rule="evenodd" d="M384.586 166.853C386.484 170.072 390.633 171.142 393.853 169.244L482.611 116.894C485.831 114.995 486.901 110.846 485.002 107.627C483.104 104.408 478.955 103.337 475.736 105.236L386.977 157.586C383.758 159.485 382.687 163.633 384.586 166.853Z" fill="url(#paint2_linear_2085_6137)"/>
<path fill-rule="evenodd" clip-rule="evenodd" d="M529.992 236.869C531.866 240.103 530.763 244.244 527.529 246.117L396.344 322.112C392.569 324.299 387.911 324.3 384.135 322.113L344.918 299.409C341.156 297.231 338.84 293.214 338.84 288.867L338.84 249.38C338.84 239.961 349.073 234.105 357.193 238.878L390.263 258.314L473.19 210.262L473.19 188.974C473.19 185.237 476.22 182.207 479.958 182.207C483.695 182.207 486.725 185.236 486.725 188.974L486.725 202.43L520.766 182.737C524.001 180.866 528.141 181.971 530.012 185.206C531.884 188.441 530.778 192.581 527.543 194.453L396.365 270.42C392.565 272.623 387.873 272.608 384.086 270.382L352.375 251.745L352.375 288.087L390.238 310.008L520.745 234.406C523.979 232.532 528.119 233.635 529.992 236.869Z" fill="url(#paint3_linear_2085_6137)"/>
<path fill-rule="evenodd" clip-rule="evenodd" d="M256.357 246.639C252.62 246.639 249.59 243.609 249.59 239.872L249.589 88.3434C249.589 84.0252 251.875 80.0297 255.598 77.8417L294.815 54.7926C298.626 52.5534 303.35 52.5534 307.16 54.7926L341.047 74.7087C349.089 79.4355 349.051 91.0782 340.978 95.7522L307.755 114.987L307.749 210.587L326.047 221.536C329.255 223.455 330.299 227.611 328.38 230.818C326.461 234.025 322.305 235.07 319.098 233.15L307.748 226.359L307.745 266.107C307.745 269.844 304.715 272.874 300.977 272.874C297.24 272.874 294.21 269.844 294.211 266.106L294.22 114.206C294.22 109.859 296.536 105.842 300.298 103.665L332.188 85.2016L300.988 66.8642L263.123 89.1178L263.124 239.872C263.124 243.609 260.095 246.639 256.357 246.639Z" fill="url(#paint4_linear_2085_6137)"/>
<path fill-rule="evenodd" clip-rule="evenodd" d="M384.108 3.9247C385.981 0.690449 390.121 -0.413036 393.355 1.46L524.647 77.4941C528.408 79.6722 530.723 83.6891 530.723 88.0352V133.894C530.723 138.268 528.377 142.307 524.577 144.475L490.741 163.773C482.62 168.405 472.525 162.541 472.525 153.192V115.064L390.02 67.0418L371.511 78.1726C368.308 80.0987 364.15 79.0637 362.224 75.8608C360.298 72.6579 361.333 68.5 364.536 66.5738L376.674 59.274L341.895 39.0309C338.665 37.1508 337.571 33.0081 339.451 29.778C341.331 26.5478 345.474 25.4534 348.704 27.3335L480.006 103.758C483.754 105.939 486.059 109.949 486.059 114.285V150.862L517.189 133.107V88.8154L386.572 13.1723C383.338 11.2992 382.235 7.15896 384.108 3.9247Z" fill="url(#paint5_linear_2085_6137)"/>
<defs>
<linearGradient id="paint0_linear_2085_6137" x1="390.415" y1="163.415" x2="376.47" y2="179.984" gradientUnits="userSpaceOnUse">
<stop stop-color="#BD3E7F"/>
<stop offset="1" stop-color="#B74296"/>
</linearGradient>
<linearGradient id="paint1_linear_2085_6137" x1="390.415" y1="163.415" x2="382.272" y2="260.178" gradientUnits="userSpaceOnUse">
<stop stop-color="#BD3E7F"/>
<stop offset="1" stop-color="#F26E40"/>
</linearGradient>
<linearGradient id="paint2_linear_2085_6137" x1="390.754" y1="163.16" x2="482.228" y2="113.331" gradientUnits="userSpaceOnUse">
<stop stop-color="#BD3E7F"/>
<stop offset="1" stop-color="#59987D"/>
</linearGradient>
<linearGradient id="paint3_linear_2085_6137" x1="528.896" y1="187.408" x2="339.407" y2="293.897" gradientUnits="userSpaceOnUse">
<stop stop-color="#FDD22F"/>
<stop offset="1" stop-color="#ED4946"/>
</linearGradient>
<linearGradient id="paint4_linear_2085_6137" x1="300.034" y1="270.256" x2="300.067" y2="55.7522" gradientUnits="userSpaceOnUse">
<stop stop-color="#ED4946"/>
<stop offset="1" stop-color="#A13EB4"/>
</linearGradient>
<linearGradient id="paint5_linear_2085_6137" x1="345.444" y1="32.6648" x2="524.452" y2="135.318" gradientUnits="userSpaceOnUse">
<stop stop-color="#734DBA"/>
<stop offset="0.291667" stop-color="#5260B8"/>
<stop offset="1" stop-color="#5BB35F"/>
</linearGradient>
</defs>
</svg>
