<svg width="792" height="326" viewBox="0 0 792 326" fill="none" xmlns="http://www.w3.org/2000/svg">
<path fill-rule="evenodd" clip-rule="evenodd" d="M168.95 166.621C170.822 163.386 169.717 159.246 166.482 157.374L77.6059 105.942C74.371 104.071 70.2311 105.175 68.3591 108.41C66.4872 111.645 67.592 115.785 70.8269 117.657L159.703 169.088C162.938 170.96 167.078 169.856 168.95 166.621Z" fill="url(#paint0_linear_2085_6132)"/>
<path fill-rule="evenodd" clip-rule="evenodd" d="M163.092 271.958C166.83 271.958 169.86 268.929 169.86 265.191L169.86 163.231C169.86 159.494 166.83 156.464 163.093 156.464C159.355 156.464 156.325 159.494 156.325 163.231L156.325 265.191C156.325 268.929 159.355 271.958 163.092 271.958Z" fill="url(#paint1_linear_2085_6132)"/>
<path fill-rule="evenodd" clip-rule="evenodd" d="M157.264 166.669C159.163 169.888 163.312 170.959 166.531 169.06L255.29 116.71C258.509 114.812 259.579 110.663 257.681 107.443C255.782 104.224 251.633 103.154 248.414 105.052L159.655 157.402C156.436 159.301 155.365 163.45 157.264 166.669Z" fill="url(#paint2_linear_2085_6132)"/>
<path fill-rule="evenodd" clip-rule="evenodd" d="M302.671 236.685C304.544 239.919 303.441 244.06 300.207 245.933L169.022 321.928C165.247 324.115 160.59 324.116 156.813 321.93L117.596 299.225C113.835 297.047 111.518 293.03 111.518 288.683L111.518 249.196C111.518 239.777 121.751 233.922 129.872 238.694L162.941 258.13L245.869 210.079L245.869 188.79C245.869 185.053 248.898 182.023 252.636 182.023C256.373 182.023 259.403 185.053 259.403 188.79L259.403 202.246L293.444 182.553C296.679 180.682 300.819 181.787 302.691 185.023C304.562 188.258 303.457 192.397 300.222 194.269L169.044 270.237C165.243 272.439 160.551 272.424 156.765 270.199L125.053 251.561L125.053 287.903L162.916 309.824L293.423 234.222C296.657 232.349 300.797 233.451 302.671 236.685Z" fill="url(#paint3_linear_2085_6132)"/>
<path fill-rule="evenodd" clip-rule="evenodd" d="M29.0354 246.455C25.298 246.455 22.2681 243.426 22.2681 239.688L22.2669 88.1599C22.2669 83.8417 24.5531 79.8461 28.276 77.6581L67.4937 54.6091C71.3038 52.3699 76.0278 52.3699 79.8378 54.6091L113.725 74.5252C121.767 79.2519 121.729 90.8947 113.656 95.5687L80.4328 114.803L80.4268 210.403L98.7257 221.353C101.933 223.272 102.977 227.427 101.058 230.635C99.139 233.842 94.9833 234.886 91.7762 232.967L80.4258 226.175L80.4234 265.923C80.4231 269.661 77.3931 272.691 73.6557 272.69C69.9182 272.69 66.8886 269.66 66.8888 265.923L66.8983 114.022C66.8986 109.676 69.2147 105.659 72.9762 103.481L104.867 85.0181L73.6658 66.6807L35.8015 88.9343L35.8027 239.688C35.8027 243.425 32.7729 246.455 29.0354 246.455Z" fill="url(#paint4_linear_2085_6132)"/>
<path fill-rule="evenodd" clip-rule="evenodd" d="M156.785 3.74111C158.658 0.506855 162.799 -0.59663 166.033 1.27641L297.324 77.3105C301.085 79.4886 303.401 83.5055 303.401 87.8516V133.71C303.401 138.085 301.055 142.124 297.255 144.291L263.418 163.59C255.298 168.221 245.202 162.357 245.202 153.009L245.202 114.88L162.698 66.8582L144.189 77.989C140.986 79.9151 136.828 78.8801 134.902 75.6772C132.976 72.4743 134.011 68.3164 137.214 66.3902L149.352 59.0904L114.573 38.8473C111.343 36.9672 110.249 32.8245 112.129 29.5944C114.009 26.3642 118.151 25.2698 121.382 27.1499L252.683 103.574C256.431 105.755 258.737 109.765 258.737 114.102V150.679L289.866 132.924V88.6318L159.25 12.9887C156.016 11.1156 154.912 6.97536 156.785 3.74111Z" fill="url(#paint5_linear_2085_6132)"/>
<path d="M400.131 97.4797V129.858H384.221V53H400.131V84.3974H434.439V53H450.349V129.858H434.439V97.4797H400.131Z" fill="black"/>
<path d="M484.936 98.8969L460.477 53.7631V53H476.927L493.595 86.1417L510.262 53H524.873V53.7631L500.846 98.2428V129.858H484.936V98.8969Z" fill="black"/>
<path d="M550.843 129.858H535.149V53H560.583C569.747 53 576.89 55.0714 582.012 59.2141C587.207 63.3568 589.805 69.4982 589.805 77.6383C589.805 85.5603 587.28 91.5927 582.229 95.7354C577.25 99.8054 570.468 101.84 561.882 101.84H550.843V129.858ZM550.843 90.2844H560.8C565.634 90.2844 569.133 89.2306 571.298 87.1229C573.535 84.9425 574.653 81.672 574.653 77.3112C574.653 73.1685 573.462 70.116 571.081 68.1536C568.772 66.1913 565.165 65.2101 560.258 65.2101H550.843V90.2844Z" fill="black"/>
<path d="M647.511 53V65.2101H617.64V84.2884H643.398V96.2805H617.64V117.648H647.836V129.858H601.947V53H647.511Z" fill="black"/>
<path d="M678.096 100.968V129.858H662.403V53H688.919C698.154 53 705.261 55.035 710.24 59.1051C715.291 63.1751 717.816 69.0258 717.816 76.6571C717.816 81.89 716.553 86.2871 714.028 89.8484C711.503 93.4097 707.931 95.9534 703.313 97.4797L722.903 128.877V129.858H706.235L688.702 100.968H678.096ZM678.096 89.3033H688.053C697.649 89.3033 702.447 85.1242 702.447 76.7661C702.447 72.6961 701.257 69.7162 698.876 67.8266C696.495 65.9369 692.707 64.9921 687.512 64.9921H678.096V89.3033Z" fill="black"/>
<path d="M380 232.881C380 225.395 381.66 218.636 384.979 212.604C388.298 206.571 392.915 201.847 398.832 198.431C404.82 195.015 411.639 193.307 419.287 193.307C426.935 193.307 433.718 195.015 439.634 198.431C445.551 201.847 450.168 206.571 453.487 212.604C456.806 218.636 458.466 225.395 458.466 232.881C458.466 240.367 456.806 247.163 453.487 253.268C450.168 259.373 445.515 264.206 439.526 267.767C433.609 271.256 426.863 273 419.287 273C411.639 273 404.82 271.256 398.832 267.767C392.915 264.206 388.298 259.373 384.979 253.268C381.66 247.163 380 240.367 380 232.881ZM442.232 232.881C442.232 227.357 441.294 222.561 439.418 218.491C437.542 214.421 434.872 211.295 431.409 209.115C427.945 206.862 423.905 205.735 419.287 205.735C414.669 205.735 410.629 206.862 407.165 209.115C403.702 211.295 401.032 214.421 399.156 218.491C397.281 222.561 396.343 227.357 396.343 232.881C396.343 238.405 397.281 243.274 399.156 247.49C401.032 251.632 403.702 254.867 407.165 257.192C410.629 259.445 414.669 260.572 419.287 260.572C423.905 260.572 427.945 259.445 431.409 257.192C434.872 254.867 437.542 251.632 439.418 247.49C441.294 243.274 442.232 238.405 442.232 232.881Z" fill="black"/>
<path d="M486.899 242.693V271.583H471.206V194.724H497.722C506.957 194.724 514.064 196.76 519.043 200.83C524.093 204.9 526.619 210.75 526.619 218.382C526.619 223.614 525.356 228.012 522.831 231.573C520.305 235.134 516.734 237.678 512.116 239.204L531.705 270.602V271.583H515.038L497.505 242.693H486.899ZM486.899 231.028H496.856C506.452 231.028 511.25 226.849 511.25 218.491C511.25 214.421 510.06 211.441 507.679 209.551C505.298 207.661 501.51 206.717 496.315 206.717H486.899V231.028Z" fill="black"/>
<path d="M556.922 254.467L550.969 271.583H536.575V270.82L564.931 194.724H580.083L608.439 270.82V271.583H592.096L586.144 254.467H556.922ZM560.926 242.911H582.139L571.533 212.495L560.926 242.911Z" fill="black"/>
<path d="M611.043 232.881C611.043 225.177 612.775 218.345 616.238 212.386C619.701 206.353 624.536 201.665 630.741 198.322C636.946 194.979 643.981 193.307 651.845 193.307C656.607 193.307 660.612 193.671 663.859 194.397C667.178 195.124 670.316 196.251 673.275 197.777V211.513L672.734 211.84C669.92 209.878 666.961 208.425 663.859 207.48C660.828 206.462 657.293 205.953 653.252 205.953C648.057 205.953 643.512 207.044 639.616 209.224C635.719 211.404 632.689 214.53 630.524 218.6C628.432 222.67 627.386 227.43 627.386 232.881C627.386 238.332 628.468 243.129 630.633 247.272C632.797 251.414 635.9 254.612 639.94 256.865C643.981 259.118 648.671 260.245 654.01 260.245C658.339 260.245 662.091 259.663 665.266 258.501C668.44 257.265 671.579 255.375 674.682 252.832L675.331 253.159V266.786C672.517 268.748 669.342 270.275 665.807 271.365C662.344 272.455 657.942 273 652.603 273C644.45 273 637.198 271.292 630.849 267.876C624.572 264.46 619.701 259.7 616.238 253.595C612.775 247.49 611.043 240.585 611.043 232.881Z" fill="black"/>
<path d="M704.735 194.724V258.828H733.308V271.583H688.826V194.724H704.735Z" fill="black"/>
<path d="M791.675 194.724V206.935H761.804V226.013H787.563V238.005H761.804V259.373H792V271.583H746.111V194.724H791.675Z" fill="black"/>
<defs>
<linearGradient id="paint0_linear_2085_6132" x1="163.093" y1="163.231" x2="149.148" y2="179.8" gradientUnits="userSpaceOnUse">
<stop stop-color="#BD3E7F"/>
<stop offset="1" stop-color="#B74296"/>
</linearGradient>
<linearGradient id="paint1_linear_2085_6132" x1="163.093" y1="163.231" x2="154.95" y2="259.995" gradientUnits="userSpaceOnUse">
<stop stop-color="#BD3E7F"/>
<stop offset="1" stop-color="#F26E40"/>
</linearGradient>
<linearGradient id="paint2_linear_2085_6132" x1="163.432" y1="162.976" x2="254.906" y2="113.147" gradientUnits="userSpaceOnUse">
<stop stop-color="#BD3E7F"/>
<stop offset="1" stop-color="#59987D"/>
</linearGradient>
<linearGradient id="paint3_linear_2085_6132" x1="301.574" y1="187.224" x2="112.086" y2="293.714" gradientUnits="userSpaceOnUse">
<stop stop-color="#FDD22F"/>
<stop offset="1" stop-color="#ED4946"/>
</linearGradient>
<linearGradient id="paint4_linear_2085_6132" x1="72.7121" y1="270.073" x2="72.7453" y2="55.5687" gradientUnits="userSpaceOnUse">
<stop stop-color="#ED4946"/>
<stop offset="1" stop-color="#A13EB4"/>
</linearGradient>
<linearGradient id="paint5_linear_2085_6132" x1="118.122" y1="32.4812" x2="297.129" y2="135.135" gradientUnits="userSpaceOnUse">
<stop stop-color="#734DBA"/>
<stop offset="0.291667" stop-color="#5260B8"/>
<stop offset="1" stop-color="#5BB35F"/>
</linearGradient>
</defs>
</svg>
