<svg width="220" height="61" viewBox="0 0 220 61" fill="none" xmlns="http://www.w3.org/2000/svg">
<path d="M70.9266 32.1099V38.0499H67.9866V23.9499H70.9266V29.7099H77.2666V23.9499H80.2066V38.0499H77.2666V32.1099H70.9266Z" fill="white"/>
<path d="M86.5981 32.3699L82.0781 24.0899V23.9499H85.1181L88.1981 30.0299L91.2781 23.9499H93.9781V24.0899L89.5381 32.2499V38.0499H86.5981V32.3699Z" fill="white"/>
<path d="M98.7772 38.0499H95.8772V23.9499H100.577C102.271 23.9499 103.591 24.3299 104.537 25.0899C105.497 25.8499 105.977 26.9766 105.977 28.4699C105.977 29.9233 105.511 31.0299 104.577 31.7899C103.657 32.5366 102.404 32.9099 100.817 32.9099H98.7772V38.0499ZM98.7772 30.7899H100.617C101.511 30.7899 102.157 30.5966 102.557 30.2099C102.971 29.8099 103.177 29.2099 103.177 28.4099C103.177 27.6499 102.957 27.0899 102.517 26.7299C102.091 26.3699 101.424 26.1899 100.517 26.1899H98.7772V30.7899Z" fill="white"/>
<path d="M116.641 23.9499V26.1899H111.121V29.6899H115.881V31.8899H111.121V35.8099H116.701V38.0499H108.221V23.9499H116.641Z" fill="white"/>
<path d="M122.293 32.7499V38.0499H119.393V23.9499H124.293C125.999 23.9499 127.313 24.3233 128.233 25.0699C129.166 25.8166 129.633 26.8899 129.633 28.2899C129.633 29.2499 129.399 30.0566 128.933 30.7099C128.466 31.3633 127.806 31.8299 126.953 32.1099L130.573 37.8699V38.0499H127.493L124.253 32.7499H122.293ZM122.293 30.6099H124.133C125.906 30.6099 126.793 29.8433 126.793 28.3099C126.793 27.5633 126.573 27.0166 126.133 26.6699C125.693 26.3233 124.993 26.1499 124.033 26.1499H122.293V30.6099Z" fill="white"/>
<path d="M135.878 30.9499C135.878 29.5766 136.185 28.3366 136.798 27.2299C137.412 26.1233 138.265 25.2566 139.358 24.6299C140.465 24.0033 141.725 23.6899 143.138 23.6899C144.552 23.6899 145.805 24.0033 146.898 24.6299C147.992 25.2566 148.845 26.1233 149.458 27.2299C150.072 28.3366 150.378 29.5766 150.378 30.9499C150.378 32.3233 150.072 33.5699 149.458 34.6899C148.845 35.8099 147.985 36.6966 146.878 37.3499C145.785 37.9899 144.538 38.3099 143.138 38.3099C141.725 38.3099 140.465 37.9899 139.358 37.3499C138.265 36.6966 137.412 35.8099 136.798 34.6899C136.185 33.5699 135.878 32.3233 135.878 30.9499ZM147.378 30.9499C147.378 29.9366 147.205 29.0566 146.858 28.3099C146.512 27.5633 146.018 26.9899 145.378 26.5899C144.738 26.1766 143.992 25.9699 143.138 25.9699C142.285 25.9699 141.538 26.1766 140.898 26.5899C140.258 26.9899 139.765 27.5633 139.418 28.3099C139.072 29.0566 138.898 29.9366 138.898 30.9499C138.898 31.9633 139.072 32.8566 139.418 33.6299C139.765 34.3899 140.258 34.9833 140.898 35.4099C141.538 35.8233 142.285 36.0299 143.138 36.0299C143.992 36.0299 144.738 35.8233 145.378 35.4099C146.018 34.9833 146.512 34.3899 146.858 33.6299C147.205 32.8566 147.378 31.9633 147.378 30.9499Z" fill="white"/>
<path d="M155.633 32.7499V38.0499H152.733V23.9499H157.633C159.339 23.9499 160.653 24.3233 161.573 25.0699C162.506 25.8166 162.973 26.8899 162.973 28.2899C162.973 29.2499 162.739 30.0566 162.273 30.7099C161.806 31.3633 161.146 31.8299 160.293 32.1099L163.913 37.8699V38.0499H160.833L157.593 32.7499H155.633ZM155.633 30.6099H157.473C159.246 30.6099 160.133 29.8433 160.133 28.3099C160.133 27.5633 159.913 27.0166 159.473 26.6699C159.033 26.3233 158.333 26.1499 157.373 26.1499H155.633V30.6099Z" fill="white"/>
<path d="M168.573 34.9099L167.473 38.0499H164.813V37.9099L170.053 23.9499H172.853L178.093 37.9099V38.0499H175.073L173.973 34.9099H168.573ZM169.313 32.7899H173.233L171.273 27.2099L169.313 32.7899Z" fill="white"/>
<path d="M178.574 30.9499C178.574 29.5366 178.894 28.2833 179.534 27.1899C180.174 26.0833 181.067 25.2233 182.214 24.6099C183.36 23.9966 184.66 23.6899 186.114 23.6899C186.994 23.6899 187.734 23.7566 188.334 23.8899C188.947 24.0233 189.527 24.2299 190.074 24.5099V27.0299L189.974 27.0899C189.454 26.7299 188.907 26.4633 188.334 26.2899C187.774 26.1033 187.12 26.0099 186.374 26.0099C185.414 26.0099 184.574 26.2099 183.854 26.6099C183.134 27.0099 182.574 27.5833 182.174 28.3299C181.787 29.0766 181.594 29.9499 181.594 30.9499C181.594 31.9499 181.794 32.8299 182.194 33.5899C182.594 34.3499 183.167 34.9366 183.914 35.3499C184.66 35.7633 185.527 35.9699 186.514 35.9699C187.314 35.9699 188.007 35.8633 188.594 35.6499C189.18 35.4233 189.76 35.0766 190.334 34.6099L190.454 34.6699V37.1699C189.934 37.5299 189.347 37.8099 188.694 38.0099C188.054 38.2099 187.24 38.3099 186.254 38.3099C184.747 38.3099 183.407 37.9966 182.234 37.3699C181.074 36.7433 180.174 35.8699 179.534 34.7499C178.894 33.6299 178.574 32.3633 178.574 30.9499Z" fill="white"/>
<path d="M195.888 23.9499V35.7099H201.168V38.0499H192.948V23.9499H195.888Z" fill="white"/>
<path d="M211.953 23.9499V26.1899H206.433V29.6899H211.193V31.8899H206.433V35.8099H212.013V38.0499H203.533V23.9499H211.953Z" fill="white"/>
<path d="M13.5835 21.5L30.0001 31" stroke="url(#paint0_linear_1367_8578)" stroke-width="2.5" stroke-linecap="round"/>
<path d="M29.9999 30.9999L29.9999 49.8332" stroke="url(#paint1_linear_1367_8578)" stroke-width="2.5" stroke-linecap="round"/>
<path d="M30 31L46.3948 21.3303" stroke="url(#paint2_linear_1367_8578)" stroke-width="2.5" stroke-linecap="round"/>
<path d="M54.7034 35.6511L46.5396 40.3737M54.7001 45.1945L30.4687 59.2317C30.1587 59.4113 29.7764 59.4113 29.4664 59.2318L22.2225 55.038C21.9137 54.8592 21.7235 54.5294 21.7235 54.1726L21.7235 46.8788C21.7235 46.1055 22.5636 45.6249 23.2302 46.0167L29.4644 49.6806C29.7753 49.8633 30.1604 49.8645 30.4724 49.6837L46.5396 40.3737M46.5396 40.3737L46.5396 35.7211" stroke="url(#paint3_linear_1367_8578)" stroke-width="2.5" stroke-linecap="round"/>
<path d="M13.4799 49.9684L13.4805 40.422M5.23795 45.1225L5.23773 17.1334C5.23773 16.7789 5.42541 16.4509 5.73104 16.2712L12.975 12.0138C13.2878 11.83 13.6756 11.83 13.9884 12.0138L20.2478 15.6925C20.908 16.0806 20.9049 17.0364 20.2421 17.4201L13.9807 21.0451C13.6719 21.2239 13.4817 21.5537 13.4817 21.9105L13.4805 40.422M13.4805 40.422L17.4688 42.8084" stroke="url(#paint4_linear_1367_8578)" stroke-width="2.5" stroke-linecap="round"/>
<path d="M21.6667 6.9444L29.9167 11.7463M29.9167 2.16663L54.1678 16.2111C54.4766 16.3899 54.6667 16.7196 54.6667 17.0764V25.547C54.6667 25.9062 54.4741 26.2378 54.1621 26.4157L47.9121 29.9804C47.2455 30.3606 46.4167 29.8792 46.4167 29.1117V21.9251C46.4167 21.5691 46.2274 21.24 45.9197 21.0609L29.9167 11.7463M29.9167 11.7463L25.864 14.1835" stroke="url(#paint5_linear_1367_8578)" stroke-width="2.5" stroke-linecap="round"/>
<defs>
<linearGradient id="paint0_linear_1367_8578" x1="29.1203" y1="30.3073" x2="28.814" y2="30.824" gradientUnits="userSpaceOnUse">
<stop stop-color="#BD3E7F"/>
<stop offset="1" stop-color="#B74296"/>
</linearGradient>
<linearGradient id="paint1_linear_1367_8578" x1="30.3367" y1="32.4232" x2="29.6555" y2="47.701" gradientUnits="userSpaceOnUse">
<stop stop-color="#BD3E7F"/>
<stop offset="1" stop-color="#F26E40"/>
</linearGradient>
<linearGradient id="paint2_linear_1367_8578" x1="31.4458" y1="30.4856" x2="46.0143" y2="23.2908" gradientUnits="userSpaceOnUse">
<stop stop-color="#BD3E7F"/>
<stop offset="1" stop-color="#59987D"/>
</linearGradient>
<linearGradient id="paint3_linear_1367_8578" x1="54.1634" y1="36.0076" x2="21.6199" y2="54.5419" gradientUnits="userSpaceOnUse">
<stop stop-color="#FDD22F"/>
<stop offset="1" stop-color="#ED4946"/>
</linearGradient>
<linearGradient id="paint4_linear_1367_8578" x1="13.5097" y1="49.228" x2="13.3254" y2="12.2738" gradientUnits="userSpaceOnUse">
<stop stop-color="#ED4946"/>
<stop offset="1" stop-color="#A13EB4"/>
</linearGradient>
<linearGradient id="paint5_linear_1367_8578" x1="22.8537" y1="7.75185" x2="53.7822" y2="25.2638" gradientUnits="userSpaceOnUse">
<stop stop-color="#734DBA"/>
<stop offset="0.291667" stop-color="#5260B8"/>
<stop offset="1" stop-color="#5BB35F"/>
</linearGradient>
</defs>
</svg>
