<svg id="Layer_1" data-name="Layer 1" xmlns="http://www.w3.org/2000/svg" width="14.91cm" height="5.07cm" viewBox="0 0 422.56 143.6">
  <defs>
    <style>
      .cls-1 {
        fill: #e8e8e8;
      }
    </style>
  </defs>
  <g>
    <path class="cls-1" d="M71.8,143.6a69.66,69.66,0,0,1-50.81-21h0A69.63,69.63,0,0,1,0,71.8,69.56,69.56,0,0,1,21,21.05,69.52,69.52,0,0,1,71.8,0c19.71,0,36.78,7.08,50.75,21.05s21,31,21,50.75a69.52,69.52,0,0,1-21,50.81A69.56,69.56,0,0,1,71.8,143.6ZM23.9,119.7a65.68,65.68,0,0,0,47.9,19.78,65.58,65.58,0,0,0,47.84-19.79A65.54,65.54,0,0,0,139.48,71.8,65.51,65.51,0,0,0,119.64,24,65.51,65.51,0,0,0,71.8,4.12,65.58,65.58,0,0,0,23.9,24,65.61,65.61,0,0,0,4.12,71.8,65.68,65.68,0,0,0,23.9,119.7Zm47.9-11A35.62,35.62,0,0,1,45.72,97.87,35.57,35.57,0,0,1,34.87,71.8,35.58,35.58,0,0,1,45.73,45.72,35.57,35.57,0,0,1,71.8,34.87,35.58,35.58,0,0,1,97.88,45.73,35.57,35.57,0,0,1,108.73,71.8,35.58,35.58,0,0,1,97.87,97.88,35.57,35.57,0,0,1,71.8,108.73ZM71.8,39a31.16,31.16,0,0,0-23.16,9.65A31.62,31.62,0,0,0,39,71.8,31.18,31.18,0,0,0,48.64,95a31.22,31.22,0,0,0,23.16,9.65A31.25,31.25,0,0,0,95,95h0a31.22,31.22,0,0,0,9.65-23.16A31.62,31.62,0,0,0,95,48.64,31.16,31.16,0,0,0,71.8,39Z"/>
    <path class="cls-1" d="M178.47,143.6h-39V71.79a69.55,69.55,0,0,1,21-50.74A69.56,69.56,0,0,1,211.28,0C231,0,248.06,7.08,262,21.05s21.05,31,21.05,50.75v2.06h-39V71.8a31.62,31.62,0,0,0-9.65-23.16,32.62,32.62,0,0,0-46.32,0,31.59,31.59,0,0,0-9.65,23.16Zm-34.87-4.12h30.75V71.8a35.58,35.58,0,0,1,10.86-26.08,36.75,36.75,0,0,1,52.15,0,35.48,35.48,0,0,1,10.8,24h30.77C278.45,52,271.79,36.64,259.12,24a67.67,67.67,0,0,0-95.74,0A65.58,65.58,0,0,0,143.6,71.79Z"/>
    <path class="cls-1" d="M422.56,143.6h-39V71.8a31.62,31.62,0,0,0-9.65-23.16,32.62,32.62,0,0,0-46.32,0A31.59,31.59,0,0,0,318,71.8,31.21,31.21,0,0,0,327.59,95a31.24,31.24,0,0,0,23.17,9.65h2.06v39h-2.06a69.66,69.66,0,0,1-50.81-21A69.66,69.66,0,0,1,279,71.8a69.56,69.56,0,0,1,21-50.75A69.52,69.52,0,0,1,350.76,0c19.71,0,36.78,7.08,50.75,21.05a69.49,69.49,0,0,1,21.05,50.74Zm-34.87-4.12h30.75V71.79A65.49,65.49,0,0,0,398.6,24a67.67,67.67,0,0,0-95.74,0A65.57,65.57,0,0,0,283.08,71.8a65.62,65.62,0,0,0,19.78,47.9,65.47,65.47,0,0,0,45.84,19.75V108.68a35.49,35.49,0,0,1-24-10.81A35.57,35.57,0,0,1,313.83,71.8a35.58,35.58,0,0,1,10.86-26.08,36.75,36.75,0,0,1,52.15,0A35.61,35.61,0,0,1,387.69,71.8Z"/>
  </g>
</svg>
