<svg width="780" height="527" viewBox="0 0 780 527" fill="none" xmlns="http://www.w3.org/2000/svg">
<path d="M390.751 0.829291C387.811 -0.873824 384.047 0.130283 382.344 3.07203C380.642 6.01377 381.645 9.77917 384.586 11.4823L516.359 87.7999V133.134L483.716 151.753V111.183C483.716 111.032 483.711 110.881 483.702 110.732C483.712 109.668 483.447 108.589 482.877 107.601C482.294 106.59 481.467 105.807 480.514 105.284C480.418 105.222 480.32 105.161 480.221 105.104L345.815 26.8679C342.879 25.1584 339.112 26.1542 337.403 29.0922C335.695 32.0303 336.69 35.7978 339.627 37.5074L375.584 58.4375L362.419 66.355C359.507 68.1064 358.565 71.8878 360.316 74.8011C362.067 77.7143 365.847 78.6562 368.759 76.9048L387.72 65.5016L465.285 110.651L388.467 154.998L310.502 110.625L344.826 90.7458C349.486 88.0468 349.508 81.3237 344.866 78.5942L301.663 53.1935C299.463 51.9004 296.737 51.9004 294.537 53.1935L250.469 79.103C248.32 80.3665 247 82.6737 247 85.1673L247.001 240.442C247.001 243.842 249.756 246.597 253.154 246.597C256.552 246.597 259.306 243.841 259.306 240.442L259.305 88.1859L298.1 65.3769L330.837 84.6241L295.456 105.116C295.342 105.182 295.23 105.25 295.121 105.322C294.185 105.851 293.377 106.632 292.807 107.634C292.343 108.45 292.086 109.326 292.019 110.203C291.972 110.532 291.947 110.865 291.947 111.202L291.938 266.872C291.938 270.272 294.692 273.027 298.09 273.028C301.488 273.028 304.242 270.272 304.243 266.873L304.245 225.66L316.679 233.102C319.595 234.848 323.373 233.898 325.117 230.981C326.862 228.064 325.913 224.285 322.997 222.539L304.246 211.315L304.252 121.23L381.894 165.419L381.895 256.2L347.477 235.964C342.79 233.208 336.883 236.59 336.883 242.029V292.443C336.883 294.953 338.22 297.273 340.392 298.531L384.46 324.053C386.64 325.316 389.328 325.316 391.508 324.052L525.912 246.163C528.853 244.459 529.855 240.694 528.152 237.752C526.449 234.811 522.685 233.808 519.744 235.512L387.982 311.87L349.188 289.402L349.188 251.248L384.423 271.964C386.609 273.25 389.318 273.258 391.511 271.986L481.417 219.872L525.927 194.114C528.869 192.412 529.874 188.647 528.172 185.704C526.471 182.762 522.707 181.756 519.766 183.459L484.489 203.873L484.489 189.168C484.489 185.769 481.735 183.013 478.337 183.013C474.939 183.013 472.184 185.769 472.184 189.168V210.997L394.2 256.201L394.199 165.902L471.411 121.327V160.833C471.411 166.231 477.238 169.618 481.925 166.944L525.115 142.309C527.309 141.058 528.663 138.725 528.663 136.199V84.7583C528.663 82.2483 527.326 79.9285 525.155 78.6709L390.751 0.829291Z" fill="white"/>
<path d="M15.922 493.498V525.595H0V449.405H15.922V480.529H50.2573V449.405H66.1793V525.595H50.2573V493.498H15.922Z" fill="white"/>
<path d="M100.794 494.903L76.3151 450.161V449.405H92.7787L109.459 482.259L126.139 449.405H140.761V450.161L116.716 494.254V525.595H100.794V494.903Z" fill="white"/>
<path d="M166.751 525.595H151.046V449.405H176.5C185.67 449.405 192.819 451.458 197.946 455.565C203.145 459.672 205.744 465.76 205.744 473.829C205.744 481.682 203.217 487.662 198.162 491.769C193.18 495.803 186.392 497.821 177.799 497.821H166.751V525.595ZM166.751 486.365H176.716C181.554 486.365 185.056 485.321 187.223 483.231C189.461 481.07 190.58 477.828 190.58 473.505C190.58 469.398 189.389 466.372 187.006 464.427C184.695 462.482 181.085 461.509 176.175 461.509H166.751V486.365Z" fill="white"/>
<path d="M263.495 449.405V461.509H233.601V480.421H259.379V492.309H233.601V513.491H263.82V525.595H217.896V449.405H263.495Z" fill="white"/>
<path d="M294.104 496.956V525.595H278.399V449.405H304.935C314.178 449.405 321.291 451.422 326.273 455.457C331.328 459.492 333.855 465.291 333.855 472.856C333.855 478.044 332.591 482.403 330.064 485.933C327.537 489.463 323.962 491.985 319.341 493.498L338.946 524.622V525.595H322.265L304.719 496.956H294.104ZM294.104 485.393H304.069C313.673 485.393 318.474 481.25 318.474 472.964C318.474 468.93 317.283 465.976 314.9 464.103C312.517 462.229 308.726 461.293 303.527 461.293H294.104V485.393Z" fill="white"/>
<path d="M367.679 487.23C367.679 479.809 369.34 473.109 372.661 467.129C375.983 461.149 380.604 456.466 386.526 453.079C392.519 449.693 399.343 448 406.997 448C414.651 448 421.438 449.693 427.36 453.079C433.281 456.466 437.902 461.149 441.224 467.129C444.545 473.109 446.206 479.809 446.206 487.23C446.206 494.651 444.545 501.387 441.224 507.439C437.902 513.491 433.245 518.282 427.251 521.813C421.33 525.271 414.579 527 406.997 527C399.343 527 392.519 525.271 386.526 521.813C380.604 518.282 375.983 513.491 372.661 507.439C369.34 501.387 367.679 494.651 367.679 487.23ZM429.959 487.23C429.959 481.754 429.02 476.999 427.143 472.964C425.266 468.93 422.594 465.832 419.128 463.67C415.662 461.437 411.618 460.32 406.997 460.32C402.375 460.32 398.332 461.437 394.866 463.67C391.4 465.832 388.728 468.93 386.85 472.964C384.973 476.999 384.034 481.754 384.034 487.23C384.034 492.705 384.973 497.533 386.85 501.711C388.728 505.818 391.4 509.024 394.866 511.33C398.332 513.563 402.375 514.68 406.997 514.68C411.618 514.68 415.662 513.563 419.128 511.33C422.594 509.024 425.266 505.818 427.143 501.711C429.02 497.533 429.959 492.705 429.959 487.23Z" fill="white"/>
<path d="M474.661 496.956V525.595H458.956V449.405H485.492C494.735 449.405 501.848 451.422 506.83 455.457C511.885 459.492 514.412 465.291 514.412 472.856C514.412 478.044 513.148 482.403 510.621 485.933C508.094 489.463 504.519 491.985 499.898 493.498L519.503 524.622V525.595H502.823L485.276 496.956H474.661ZM474.661 485.393H484.626C494.23 485.393 499.032 481.25 499.032 472.964C499.032 468.93 497.84 465.976 495.457 464.103C493.074 462.229 489.283 461.293 484.084 461.293H474.661V485.393Z" fill="white"/>
<path d="M544.739 508.628L538.782 525.595H524.376V524.839L552.754 449.405H567.918L596.296 524.839V525.595H579.941L573.983 508.628H544.739ZM548.746 497.172H569.976L559.361 467.021L548.746 497.172Z" fill="white"/>
<path d="M598.902 487.23C598.902 479.593 600.635 472.82 604.101 466.912C607.567 460.933 612.405 456.285 618.615 452.971C624.825 449.657 631.865 448 639.736 448C644.502 448 648.51 448.36 651.759 449.081C655.081 449.801 658.222 450.918 661.182 452.431V466.048L660.641 466.372C657.825 464.427 654.864 462.986 651.759 462.049C648.726 461.041 645.188 460.536 641.144 460.536C635.945 460.536 631.396 461.617 627.497 463.778C623.598 465.94 620.565 469.038 618.399 473.073C616.304 477.107 615.257 481.826 615.257 487.23C615.257 492.633 616.341 497.389 618.507 501.495C620.673 505.602 623.778 508.772 627.822 511.005C631.865 513.239 636.559 514.356 641.903 514.356C646.235 514.356 649.99 513.779 653.167 512.627C656.344 511.402 659.485 509.528 662.59 507.007L663.24 507.331V520.84C660.424 522.785 657.247 524.298 653.709 525.379C650.243 526.46 645.838 527 640.494 527C632.335 527 625.078 525.307 618.724 521.921C612.441 518.534 607.567 513.815 604.101 507.763C600.635 501.711 598.902 494.867 598.902 487.23Z" fill="white"/>
<path d="M692.668 449.405V512.951H721.262V525.595H676.745V449.405H692.668Z" fill="white"/>
<path d="M779.675 449.405V461.509H749.781V480.421H775.559V492.309H749.781V513.491H780V525.595H734.075V449.405H779.675Z" fill="white"/>
</svg>
